<svg xmlns="http://www.w3.org/2000/svg" xmlns:xlink="http://www.w3.org/1999/xlink" width="1920" zoomAndPan="magnify" viewBox="0 0 1440 809.999993" height="1080" preserveAspectRatio="xMidYMid meet" version="1.0"><defs><g/><clipPath id="0e1884cc26"><path d="M 337.519531 30.378906 L 1102.480469 30.378906 L 1102.480469 810 L 337.519531 810 Z M 337.519531 30.378906 " clip-rule="nonzero"/></clipPath><clipPath id="fac93a20ee"><path d="M 720 30.378906 C 508.761719 30.378906 337.519531 204.902344 337.519531 420.1875 C 337.519531 635.476562 508.761719 810 720 810 C 931.238281 810 1102.480469 635.476562 1102.480469 420.1875 C 1102.480469 204.902344 931.238281 30.378906 720 30.378906 Z M 720 30.378906 " clip-rule="nonzero"/></clipPath><clipPath id="3afa6e9eef"><path d="M 944 215 L 966.0625 215 L 966.0625 237 L 944 237 Z M 944 215 " clip-rule="nonzero"/></clipPath><clipPath id="915aa81e9d"><path d="M 744.246094 762 L 762 762 L 762 778.902344 L 744.246094 778.902344 Z M 744.246094 762 " clip-rule="nonzero"/></clipPath><clipPath id="b62b8f9475"><path d="M 372.8125 461 L 390 461 L 390 479 L 372.8125 479 Z M 372.8125 461 " clip-rule="nonzero"/></clipPath><clipPath id="0d22ec1063"><path d="M 720 333.902344 L 966.15625 333.902344 L 966.15625 580.058594 L 720 580.058594 Z M 720 333.902344 " clip-rule="nonzero"/></clipPath><clipPath id="bb37bac251"><path d="M 843.078125 333.902344 C 775.105469 333.902344 720 389.003906 720 456.980469 C 720 524.953125 775.105469 580.058594 843.078125 580.058594 C 911.050781 580.058594 966.15625 524.953125 966.15625 456.980469 C 966.15625 389.003906 911.050781 333.902344 843.078125 333.902344 Z M 843.078125 333.902344 " clip-rule="nonzero"/></clipPath><clipPath id="25e11f3a4d"><path d="M 878 447 L 931 447 L 931 523 L 878 523 Z M 878 447 " clip-rule="nonzero"/></clipPath><clipPath id="30c788ca58"><path d="M 878.167969 456.980469 L 930.363281 446.429688 L 944.777344 517.734375 L 892.582031 528.285156 Z M 878.167969 456.980469 " clip-rule="nonzero"/></clipPath><clipPath id="b15826cac2"><path d="M 878.167969 456.980469 L 930.363281 446.429688 L 944.777344 517.734375 L 892.582031 528.285156 Z M 878.167969 456.980469 " clip-rule="nonzero"/></clipPath><clipPath id="ef172f1701"><path d="M 754 489 L 824 489 L 824 557 L 754 557 Z M 754 489 " clip-rule="nonzero"/></clipPath><clipPath id="4a17b71d65"><path d="M 743.429688 511.042969 L 796.785156 485.277344 L 825.808594 545.386719 L 772.457031 571.152344 Z M 743.429688 511.042969 " clip-rule="nonzero"/></clipPath><clipPath id="e9493830a3"><path d="M 743.429688 511.042969 L 796.785156 485.277344 L 825.808594 545.386719 L 772.457031 571.152344 Z M 743.429688 511.042969 " clip-rule="nonzero"/></clipPath></defs><g clip-path="url(#0e1884cc26)"><g clip-path="url(#fac93a20ee)"><path fill="#faf1f1" d="M 337.519531 30.378906 L 1102.480469 30.378906 L 1102.480469 810.277344 L 337.519531 810.277344 Z M 337.519531 30.378906 " fill-opacity="1" fill-rule="nonzero"/></g></g><path fill="#581717" d="M 634.992188 89.925781 L 529.679688 184.203125 L 726.257812 110.984375 Z M 522.523438 188.523438 L 634.550781 88.230469 L 634.945312 88.324219 L 731.644531 110.632812 L 729.226562 111.539062 L 522.523438 188.523438 " fill-opacity="1" fill-rule="nonzero"/><path fill="#581717" d="M 731.964844 111.167969 L 869.21875 165.269531 L 837.160156 96.140625 Z M 872.261719 168.132812 L 870.453125 167.421875 L 725.9375 110.457031 L 838.085938 94.4375 L 872.261719 168.132812 " fill-opacity="1" fill-rule="nonzero"/><path fill="#581717" d="M 674.921875 732.359375 L 752.714844 771.261719 L 832.503906 721.390625 Z M 752.800781 773.039062 L 669.140625 731.207031 L 838.605469 719.410156 L 752.800781 773.039062 " fill-opacity="1" fill-rule="nonzero"/><path fill="#581717" d="M 588.140625 699.269531 L 628.773438 760.707031 L 670.394531 731.96875 Z M 628.351562 762.886719 L 627.917969 762.222656 L 584.121094 695.996094 L 673.664062 731.601562 L 628.351562 762.886719 " fill-opacity="1" fill-rule="nonzero"/><path fill="#581717" d="M 487.710938 645.75 L 525.449219 713.285156 L 584.042969 697.390625 Z M 524.683594 715.097656 L 483.765625 641.875 L 588.21875 697.867188 L 524.683594 715.097656 " fill-opacity="1" fill-rule="nonzero"/><path fill="#581717" d="M 428.640625 608.242188 L 484.207031 641.972656 L 442.535156 532.832031 Z M 487.269531 645.648438 L 426.921875 609.011719 L 442.011719 527.105469 L 487.269531 645.648438 " fill-opacity="1" fill-rule="nonzero"/><path fill="#581717" d="M 383.195312 467.738281 L 441.21875 527.757812 L 424.203125 390.710938 Z M 443.328125 532.175781 L 381.289062 468.003906 L 381.558594 467.507812 L 425.144531 385.648438 L 443.328125 532.175781 " fill-opacity="1" fill-rule="nonzero"/><path fill="#581717" d="M 393.503906 314.839844 L 424.316406 385.421875 L 444.199219 257.179688 Z M 425.035156 390.9375 L 391.683594 314.554688 L 392.007812 314.1875 L 446.546875 252.160156 L 425.035156 390.9375 " fill-opacity="1" fill-rule="nonzero"/><path fill="#581717" d="M 469.730469 189.191406 L 447.085938 252.207031 L 523.886719 187.222656 Z M 443.664062 257.132812 L 468.625 187.675781 L 528.316406 185.507812 L 443.664062 257.132812 " fill-opacity="1" fill-rule="nonzero"/><path fill="#581717" d="M 729.828125 111.992188 L 734.839844 173.128906 L 867.136719 166.117188 Z M 733.414062 174.761719 L 728.074219 109.632812 L 874.34375 167.285156 L 733.414062 174.761719 " fill-opacity="1" fill-rule="nonzero"/><path fill="#581717" d="M 527.90625 187.035156 L 593.503906 250.609375 L 730.746094 174.921875 Z M 593.242188 252.523438 L 592.835938 252.125 L 524.292969 185.691406 L 526.054688 185.589844 L 737.511719 172.964844 L 593.242188 252.523438 " fill-opacity="1" fill-rule="nonzero"/><path fill="#581717" d="M 446.042969 255.433594 L 425.753906 386.3125 L 591.125 252.386719 Z M 423.597656 390.046875 L 444.707031 253.90625 L 595.625 250.742188 L 423.597656 390.046875 " fill-opacity="1" fill-rule="nonzero"/><path fill="#581717" d="M 425.578125 389.164062 L 442.707031 527.125 L 498.089844 404.265625 Z M 441.84375 532.8125 L 423.773438 387.195312 L 500.300781 403.144531 L 499.902344 404.023438 L 441.84375 532.8125 " fill-opacity="1" fill-rule="nonzero"/><path fill="#581717" d="M 593.328125 253.117188 L 501.621094 401.261719 L 629.605469 320.636719 Z M 496.765625 406.152344 L 593.421875 250.015625 L 631.660156 321.179688 L 631.046875 321.5625 L 496.765625 406.152344 " fill-opacity="1" fill-rule="nonzero"/><path fill="#581717" d="M 736.945312 174.570312 L 860.792969 241.03125 L 869.855469 167.519531 Z M 862.058594 243.46875 L 861.058594 242.9375 L 731.316406 173.316406 L 871.625 165.875 L 871.511719 166.796875 L 862.058594 243.46875 " fill-opacity="1" fill-rule="nonzero"/><path fill="#581717" d="M 443.480469 530.953125 L 485.890625 642.023438 L 541.421875 547.113281 Z M 485.589844 645.601562 L 441.0625 528.984375 L 442.398438 529.207031 L 543.902344 545.945312 L 543.332031 546.921875 L 485.589844 645.601562 " fill-opacity="1" fill-rule="nonzero"/><path fill="#581717" d="M 492.328125 644.355469 C 492.328125 647.5 489.777344 650.042969 486.636719 650.042969 C 483.492188 650.042969 480.949219 647.5 480.949219 644.355469 C 480.949219 641.214844 483.492188 638.664062 486.636719 638.664062 C 489.777344 638.664062 492.328125 641.214844 492.328125 644.355469 " fill-opacity="1" fill-rule="nonzero"/><path fill="#581717" d="M 840.421875 720.722656 C 840.421875 723.863281 837.871094 726.414062 834.730469 726.414062 C 831.585938 726.414062 829.042969 723.863281 829.042969 720.722656 C 829.042969 717.582031 831.585938 715.035156 834.730469 715.035156 C 837.871094 715.035156 840.421875 717.582031 840.421875 720.722656 " fill-opacity="1" fill-rule="nonzero"/><path fill="#581717" d="M 503.871094 403.707031 C 503.871094 406.851562 501.320312 409.398438 498.179688 409.398438 C 495.035156 409.398438 492.492188 406.851562 492.492188 403.707031 C 492.492188 400.566406 495.035156 398.015625 498.179688 398.015625 C 501.320312 398.015625 503.871094 400.566406 503.871094 403.707031 " fill-opacity="1" fill-rule="nonzero"/><path fill="#581717" d="M 533.171875 186.144531 C 533.171875 189.289062 530.625 191.839844 527.484375 191.839844 C 524.339844 191.839844 521.796875 189.289062 521.796875 186.144531 C 521.796875 183.003906 524.339844 180.457031 527.484375 180.457031 C 530.625 180.457031 533.171875 183.003906 533.171875 186.144531 " fill-opacity="1" fill-rule="nonzero"/><path fill="#581717" d="M 876.46875 167.496094 C 876.46875 170.640625 873.917969 173.191406 870.78125 173.191406 C 867.636719 173.191406 865.085938 170.640625 865.085938 167.496094 C 865.085938 164.359375 867.636719 161.808594 870.78125 161.808594 C 873.917969 161.808594 876.46875 164.359375 876.46875 167.496094 " fill-opacity="1" fill-rule="nonzero"/><path fill="#581717" d="M 736.527344 110.667969 C 736.527344 113.808594 733.976562 116.359375 730.832031 116.359375 C 727.691406 116.359375 725.144531 113.808594 725.144531 110.667969 C 725.144531 107.523438 727.691406 104.980469 730.832031 104.980469 C 733.976562 104.980469 736.527344 107.523438 736.527344 110.667969 " fill-opacity="1" fill-rule="nonzero"/><path fill="#581717" d="M 429.277344 388.609375 C 429.277344 391.753906 426.730469 394.304688 423.589844 394.304688 C 420.445312 394.304688 417.894531 391.753906 417.894531 388.609375 C 417.894531 385.46875 420.445312 382.921875 423.589844 382.921875 C 426.730469 382.921875 429.277344 385.46875 429.277344 388.609375 " fill-opacity="1" fill-rule="nonzero"/><path fill="#581717" d="M 451.476562 254.523438 C 451.476562 257.667969 448.929688 260.210938 445.789062 260.210938 C 442.644531 260.210938 440.101562 257.667969 440.101562 254.523438 C 440.101562 251.382812 442.644531 248.832031 445.789062 248.832031 C 448.929688 248.832031 451.476562 251.382812 451.476562 254.523438 " fill-opacity="1" fill-rule="nonzero"/><path fill="#581717" d="M 549.160156 548.089844 C 549.160156 551.234375 546.609375 553.777344 543.46875 553.777344 C 540.324219 553.777344 537.777344 551.234375 537.777344 548.089844 C 537.777344 544.949219 540.324219 542.398438 543.46875 542.398438 C 546.609375 542.398438 549.160156 544.949219 549.160156 548.089844 " fill-opacity="1" fill-rule="nonzero"/><path fill="#581717" d="M 447.039062 529.804688 C 447.039062 532.945312 444.488281 535.492188 441.347656 535.492188 C 438.203125 535.492188 435.660156 532.945312 435.660156 529.804688 C 435.660156 526.660156 438.203125 524.109375 441.347656 524.109375 C 444.488281 524.109375 447.039062 526.660156 447.039062 529.804688 " fill-opacity="1" fill-rule="nonzero"/><path fill="#581717" d="M 679.695312 729.601562 C 679.695312 732.746094 677.144531 735.289062 674.003906 735.289062 C 670.859375 735.289062 668.316406 732.746094 668.316406 729.601562 C 668.316406 726.460938 670.859375 723.914062 674.003906 723.914062 C 677.144531 723.914062 679.695312 726.460938 679.695312 729.601562 " fill-opacity="1" fill-rule="nonzero"/><path fill="#581717" d="M 869.820312 239.425781 C 869.820312 244.09375 866.039062 247.878906 861.371094 247.878906 C 856.707031 247.878906 852.921875 244.09375 852.921875 239.425781 C 852.921875 234.761719 856.707031 230.980469 861.371094 230.980469 C 866.039062 230.980469 869.820312 234.761719 869.820312 239.425781 " fill-opacity="1" fill-rule="nonzero"/><path fill="#581717" d="M 601.648438 251.859375 C 601.648438 256.527344 597.859375 260.308594 593.195312 260.308594 C 588.527344 260.308594 584.746094 256.527344 584.746094 251.859375 C 584.746094 247.195312 588.527344 243.410156 593.195312 243.410156 C 597.859375 243.410156 601.648438 247.195312 601.648438 251.859375 " fill-opacity="1" fill-rule="nonzero"/><path fill="#581717" d="M 740.167969 175.492188 C 740.167969 180.15625 736.390625 183.941406 731.722656 183.941406 C 727.054688 183.941406 723.273438 180.15625 723.273438 175.492188 C 723.273438 170.824219 727.054688 167.042969 731.722656 167.042969 C 736.390625 167.042969 740.167969 170.824219 740.167969 175.492188 " fill-opacity="1" fill-rule="nonzero"/><path fill="#581717" d="M 639.792969 90.011719 L 723.828125 119.320312 L 831.304688 95.871094 Z M 723.730469 120.929688 L 723.523438 120.859375 L 629.746094 88.148438 L 843.941406 94.707031 L 723.730469 120.929688 " fill-opacity="1" fill-rule="nonzero"/><path fill="#581717" d="M 856.785156 125.707031 L 946.945312 161.402344 L 839.878906 97.539062 Z M 955.320312 166.386719 L 855.722656 126.960938 L 835.363281 93.039062 L 956.003906 164.996094 L 955.320312 166.386719 " fill-opacity="1" fill-rule="nonzero"/><path fill="#581717" d="M 632.640625 91.257812 L 474.625 186.066406 L 599.066406 150.519531 Z M 463.730469 190.796875 L 636.898438 86.894531 L 600.101562 151.835938 L 599.796875 151.921875 L 463.730469 190.796875 " fill-opacity="1" fill-rule="nonzero"/><path fill="#581717" d="M 468.40625 191.207031 L 396.085938 310.433594 L 468.40625 243.980469 Z M 389.09375 318.960938 L 469.953125 185.660156 L 469.953125 244.660156 L 469.703125 244.890625 L 389.09375 318.960938 " fill-opacity="1" fill-rule="nonzero"/><path fill="#581717" d="M 393.175781 317.601562 L 383.605469 459.222656 L 410.394531 352.046875 Z M 382.996094 468.058594 L 381.46875 467.824219 L 392.007812 311.800781 L 412.046875 351.867188 L 382.996094 468.058594 " fill-opacity="1" fill-rule="nonzero"/><path fill="#581717" d="M 383.636719 469.65625 L 427.171875 604.21875 L 431.128906 499.339844 Z M 428.394531 613.035156 L 380.847656 466.089844 L 432.714844 498.5 L 432.695312 498.949219 L 428.394531 613.035156 " fill-opacity="1" fill-rule="nonzero"/><path fill="#581717" d="M 430.792969 610.742188 L 522.921875 710.722656 L 495.480469 638.191406 Z M 527.210938 717.660156 L 424.773438 606.507812 L 496.695312 637.023438 L 496.816406 637.332031 L 527.210938 717.660156 " fill-opacity="1" fill-rule="nonzero"/><path fill="#581717" d="M 813.085938 710.851562 L 755.535156 770.390625 L 908.34375 718.792969 Z M 749.976562 773.910156 L 812.484375 709.25 L 812.851562 709.277344 L 915.9375 717.867188 L 749.976562 773.910156 " fill-opacity="1" fill-rule="nonzero"/><path fill="#581717" d="M 529.132812 715.210938 L 626.058594 759.789062 L 595.042969 719.082031 Z M 631.070312 763.804688 L 521 713.175781 L 595.847656 717.574219 L 596.0625 717.859375 L 631.070312 763.804688 " fill-opacity="1" fill-rule="nonzero"/><path fill="#581717" d="M 632.769531 761.371094 L 749.363281 771.085938 L 698.839844 741.9375 Z M 756.152344 773.214844 L 624.355469 762.222656 L 699.039062 740.261719 L 699.332031 740.421875 L 756.152344 773.214844 " fill-opacity="1" fill-rule="nonzero"/><path fill="#581717" d="M 727.042969 121.054688 L 831.058594 179.066406 L 855.066406 127.058594 Z M 831.765625 181.242188 L 720.519531 119.195312 L 857.441406 125.617188 L 831.765625 181.242188 " fill-opacity="1" fill-rule="nonzero"/><path fill="#581717" d="M 604.390625 150.773438 L 704.675781 158.640625 L 722.375 121.277344 Z M 705.621094 160.269531 L 705.089844 160.230469 L 594.777344 151.574219 L 725.183594 118.972656 L 705.621094 160.269531 " fill-opacity="1" fill-rule="nonzero"/><path fill="#581717" d="M 598.839844 152.664062 L 472.011719 243.25 L 600.34375 230.164062 Z M 466.347656 245.386719 L 600.332031 149.6875 L 601.921875 231.570312 L 601.214844 231.640625 L 466.347656 245.386719 " fill-opacity="1" fill-rule="nonzero"/><path fill="#581717" d="M 469.339844 245.660156 L 413.445312 349.464844 L 505.269531 285.582031 Z M 408.996094 354.449219 L 469.019531 242.980469 L 507.605469 285.855469 L 408.996094 354.449219 " fill-opacity="1" fill-rule="nonzero"/><path fill="#581717" d="M 602.578125 230.820312 L 704.375 290.574219 L 704.375 160.929688 Z M 705.921875 293.285156 L 704.753906 292.601562 L 599.691406 230.914062 L 600.695312 230.230469 L 705.921875 157.980469 L 705.921875 293.285156 " fill-opacity="1" fill-rule="nonzero"/><path fill="#581717" d="M 705.921875 160.367188 L 705.921875 290.207031 L 829.675781 180.65625 Z M 704.375 293.652344 L 704.375 158.542969 L 833.152344 179.652344 L 831.929688 180.738281 L 704.375 293.652344 " fill-opacity="1" fill-rule="nonzero"/><path fill="#581717" d="M 832.46875 179.722656 L 954.585938 225.765625 L 856.492188 127.667969 Z M 960.773438 229.757812 L 830.363281 180.589844 L 830.710938 179.828125 L 856.015625 125 L 960.773438 229.757812 " fill-opacity="1" fill-rule="nonzero"/><path fill="#581717" d="M 509.179688 285.027344 L 702.128906 291.0625 L 601.132812 231.765625 Z M 708.167969 292.800781 L 503.699219 286.410156 L 601.136719 229.96875 L 601.527344 230.199219 L 708.167969 292.800781 " fill-opacity="1" fill-rule="nonzero"/><path fill="#581717" d="M 412.425781 352.066406 L 509.757812 449.386719 L 505.695312 287.179688 Z M 511.402344 453.234375 L 410.015625 351.847656 L 507.179688 284.257812 L 507.210938 285.699219 L 511.402344 453.234375 " fill-opacity="1" fill-rule="nonzero"/><path fill="#581717" d="M 412.308594 354.144531 L 432.527344 497.648438 L 509.328125 451.164062 Z M 431.316406 500.191406 L 410.132812 349.765625 L 511.828125 451.464844 L 431.316406 500.191406 " fill-opacity="1" fill-rule="nonzero"/><path fill="#581717" d="M 432.917969 499.226562 L 495.546875 634.585938 L 509.6875 452.757812 Z M 496.628906 640.628906 L 430.925781 498.617188 L 431.519531 498.253906 L 511.46875 449.863281 L 511.351562 451.371094 L 496.628906 640.628906 " fill-opacity="1" fill-rule="nonzero"/><path fill="#581717" d="M 497.972656 638.136719 L 595.289062 717.199219 L 666.242188 615.839844 Z M 595.597656 719.460938 L 594.953125 718.933594 L 494.199219 637.074219 L 669.542969 613.835938 L 668.527344 615.28125 L 595.597656 719.460938 " fill-opacity="1" fill-rule="nonzero"/><path fill="#581717" d="M 596.746094 717.824219 L 697.890625 740.074219 L 667.550781 616.683594 Z M 699.992188 742.125 L 594.140625 718.835938 L 668.234375 612.988281 L 699.992188 742.125 " fill-opacity="1" fill-rule="nonzero"/><path fill="#581717" d="M 612.140625 229.363281 C 612.140625 235.25 607.367188 240.019531 601.484375 240.019531 C 595.597656 240.019531 590.828125 235.25 590.828125 229.363281 C 590.828125 223.480469 595.597656 218.710938 601.484375 218.710938 C 607.367188 218.710938 612.140625 223.480469 612.140625 229.363281 " fill-opacity="1" fill-rule="nonzero"/><path fill="#581717" d="M 608.75 152.40625 C 608.75 157.074219 604.964844 160.851562 600.296875 160.851562 C 595.636719 160.851562 591.851562 157.074219 591.851562 152.40625 C 591.851562 147.738281 595.636719 143.953125 600.296875 143.953125 C 604.964844 143.953125 608.75 147.738281 608.75 152.40625 " fill-opacity="1" fill-rule="nonzero"/><g clip-path="url(#3afa6e9eef)"><path fill="#581717" d="M 966.15625 225.8125 C 966.15625 231.695312 961.386719 236.46875 955.496094 236.46875 C 949.617188 236.46875 944.839844 231.695312 944.839844 225.8125 C 944.839844 219.925781 949.617188 215.15625 955.496094 215.15625 C 961.386719 215.15625 966.15625 219.925781 966.15625 225.8125 " fill-opacity="1" fill-rule="nonzero"/></g><path fill="#581717" d="M 516.234375 286.195312 C 516.234375 292.082031 511.464844 296.851562 505.582031 296.851562 C 499.695312 296.851562 494.925781 292.082031 494.925781 286.195312 C 494.925781 280.3125 499.695312 275.542969 505.582031 275.542969 C 511.464844 275.542969 516.234375 280.3125 516.234375 286.195312 " fill-opacity="1" fill-rule="nonzero"/><path fill="#581717" d="M 715.148438 160.691406 C 715.148438 166.574219 710.378906 171.351562 704.492188 171.351562 C 698.601562 171.351562 693.832031 166.574219 693.832031 160.691406 C 693.832031 154.804688 698.601562 150.035156 704.492188 150.035156 C 710.378906 150.035156 715.148438 154.804688 715.148438 160.691406 " fill-opacity="1" fill-rule="nonzero"/><path fill="#581717" d="M 841.835938 182.003906 C 841.835938 187.890625 837.066406 192.660156 831.179688 192.660156 C 825.296875 192.660156 820.519531 187.890625 820.519531 182.003906 C 820.519531 176.121094 825.296875 171.351562 831.179688 171.351562 C 837.066406 171.351562 841.835938 176.121094 841.835938 182.003906 " fill-opacity="1" fill-rule="nonzero"/><path fill="#581717" d="M 864.488281 127.539062 C 864.488281 132.207031 860.710938 135.988281 856.042969 135.988281 C 851.375 135.988281 847.59375 132.207031 847.59375 127.539062 C 847.59375 122.871094 851.375 119.089844 856.042969 119.089844 C 860.710938 119.089844 864.488281 122.871094 864.488281 127.539062 " fill-opacity="1" fill-rule="nonzero"/><path fill="#581717" d="M 846.730469 93.203125 C 846.730469 97.871094 842.949219 101.652344 838.285156 101.652344 C 833.617188 101.652344 829.835938 97.871094 829.835938 93.203125 C 829.835938 88.535156 833.617188 84.753906 838.285156 84.753906 C 842.949219 84.753906 846.730469 88.535156 846.730469 93.203125 " fill-opacity="1" fill-rule="nonzero"/><path fill="#581717" d="M 731.722656 120.4375 C 731.722656 125.101562 727.941406 128.882812 723.273438 128.882812 C 718.609375 128.882812 714.828125 125.101562 714.828125 120.4375 C 714.828125 115.769531 718.609375 111.988281 723.273438 111.988281 C 727.941406 111.988281 731.722656 115.769531 731.722656 120.4375 " fill-opacity="1" fill-rule="nonzero"/><path fill="#581717" d="M 641.902344 89.652344 C 641.902344 94.316406 638.121094 98.101562 633.453125 98.101562 C 628.785156 98.101562 625 94.316406 625 89.652344 C 625 84.984375 628.785156 81.203125 633.453125 81.203125 C 638.121094 81.203125 641.902344 84.984375 641.902344 89.652344 " fill-opacity="1" fill-rule="nonzero"/><path fill="#581717" d="M 477.324219 190.289062 C 477.324219 194.957031 473.539062 198.742188 468.878906 198.742188 C 464.210938 198.742188 460.425781 194.957031 460.425781 190.289062 C 460.425781 185.628906 464.210938 181.84375 468.878906 181.84375 C 473.539062 181.84375 477.324219 185.628906 477.324219 190.289062 " fill-opacity="1" fill-rule="nonzero"/><path fill="#581717" d="M 479.691406 245.941406 C 479.691406 250.609375 475.910156 254.390625 471.246094 254.390625 C 466.578125 254.390625 462.796875 250.609375 462.796875 245.941406 C 462.796875 241.273438 466.578125 237.488281 471.246094 237.488281 C 475.910156 237.488281 479.691406 241.273438 479.691406 245.941406 " fill-opacity="1" fill-rule="nonzero"/><path fill="#581717" d="M 421.679688 352.5 C 421.679688 357.164062 417.894531 360.945312 413.226562 360.945312 C 408.558594 360.945312 404.777344 357.164062 404.777344 352.5 C 404.777344 347.832031 408.558594 344.050781 413.226562 344.050781 C 417.894531 344.050781 421.679688 347.832031 421.679688 352.5 " fill-opacity="1" fill-rule="nonzero"/><path fill="#581717" d="M 437.070312 607.058594 C 437.070312 611.726562 433.285156 615.507812 428.617188 615.507812 C 423.953125 615.507812 420.171875 611.726562 420.171875 607.058594 C 420.171875 602.390625 423.953125 598.609375 428.617188 598.609375 C 433.285156 598.609375 437.070312 602.390625 437.070312 607.058594 " fill-opacity="1" fill-rule="nonzero"/><path fill="#581717" d="M 530.601562 715.988281 C 530.601562 720.652344 526.820312 724.433594 522.15625 724.433594 C 517.488281 724.433594 513.707031 720.652344 513.707031 715.988281 C 513.707031 711.320312 517.488281 707.539062 522.15625 707.539062 C 526.820312 707.539062 530.601562 711.320312 530.601562 715.988281 " fill-opacity="1" fill-rule="nonzero"/><path fill="#581717" d="M 635.820312 762.164062 C 635.820312 766.832031 632.039062 770.613281 627.371094 770.613281 C 622.707031 770.613281 618.921875 766.832031 618.921875 762.164062 C 618.921875 757.496094 622.707031 753.710938 627.371094 753.710938 C 632.039062 753.710938 635.820312 757.496094 635.820312 762.164062 " fill-opacity="1" fill-rule="nonzero"/><g clip-path="url(#915aa81e9d)"><path fill="#581717" d="M 761.320312 770.449219 C 761.320312 775.117188 757.539062 778.902344 752.875 778.902344 C 748.207031 778.902344 744.425781 775.117188 744.425781 770.449219 C 744.425781 765.78125 748.207031 762 752.875 762 C 757.539062 762 761.320312 765.78125 761.320312 770.449219 " fill-opacity="1" fill-rule="nonzero"/></g><path fill="#581717" d="M 924.714844 717.171875 C 924.714844 721.839844 920.929688 725.621094 916.269531 725.621094 C 911.601562 725.621094 907.816406 721.839844 907.816406 717.171875 C 907.816406 712.503906 911.601562 708.722656 916.269531 708.722656 C 920.929688 708.722656 924.714844 712.503906 924.714844 717.171875 " fill-opacity="1" fill-rule="nonzero"/><path fill="#581717" d="M 962.605469 165.429688 C 962.605469 170.09375 958.820312 173.875 954.152344 173.875 C 949.484375 173.875 945.703125 170.09375 945.703125 165.429688 C 945.703125 160.761719 949.484375 156.980469 954.152344 156.980469 C 958.820312 156.980469 962.605469 160.761719 962.605469 165.429688 " fill-opacity="1" fill-rule="nonzero"/><path fill="#581717" d="M 604.011719 714.800781 C 604.011719 719.46875 600.230469 723.253906 595.566406 723.253906 C 590.898438 723.253906 587.113281 719.46875 587.113281 714.800781 C 587.113281 710.136719 590.898438 706.355469 595.566406 706.355469 C 600.230469 706.355469 604.011719 710.136719 604.011719 714.800781 " fill-opacity="1" fill-rule="nonzero"/><path fill="#581717" d="M 401.550781 314.609375 C 401.550781 319.277344 397.765625 323.058594 393.101562 323.058594 C 388.433594 323.058594 384.648438 319.277344 384.648438 314.609375 C 384.648438 309.945312 388.433594 306.164062 393.101562 306.164062 C 397.765625 306.164062 401.550781 309.945312 401.550781 314.609375 " fill-opacity="1" fill-rule="nonzero"/><g clip-path="url(#b62b8f9475)"><path fill="#581717" d="M 389.707031 469.714844 C 389.707031 474.382812 385.925781 478.164062 381.261719 478.164062 C 376.59375 478.164062 372.8125 474.382812 372.8125 469.714844 C 372.8125 465.050781 376.59375 461.269531 381.261719 461.269531 C 385.925781 461.269531 389.707031 465.050781 389.707031 469.714844 " fill-opacity="1" fill-rule="nonzero"/></g><path fill="#581717" d="M 677.261719 614.164062 C 677.261719 620.046875 672.488281 624.816406 666.605469 624.816406 C 660.71875 624.816406 655.949219 620.046875 655.949219 614.164062 C 655.949219 608.277344 660.71875 603.507812 666.605469 603.507812 C 672.488281 603.507812 677.261719 608.277344 677.261719 614.164062 " fill-opacity="1" fill-rule="nonzero"/><path fill="#581717" d="M 710.410156 738.484375 C 710.410156 744.367188 705.640625 749.136719 699.757812 749.136719 C 693.871094 749.136719 689.101562 744.367188 689.101562 738.484375 C 689.101562 732.597656 693.871094 727.828125 699.757812 727.828125 C 705.640625 727.828125 710.410156 732.597656 710.410156 738.484375 " fill-opacity="1" fill-rule="nonzero"/><path fill="#581717" d="M 825.257812 707.699219 C 825.257812 713.582031 820.488281 718.355469 814.601562 718.355469 C 808.71875 718.355469 803.945312 713.582031 803.945312 707.699219 C 803.945312 701.8125 808.71875 697.042969 814.601562 697.042969 C 820.488281 697.042969 825.257812 701.8125 825.257812 707.699219 " fill-opacity="1" fill-rule="nonzero"/><path fill="#581717" d="M 440.460938 496.945312 C 440.460938 502.835938 435.6875 507.605469 429.804688 507.605469 C 423.917969 507.605469 419.148438 502.835938 419.148438 496.945312 C 419.148438 491.066406 423.917969 486.289062 429.804688 486.289062 C 435.6875 486.289062 440.460938 491.066406 440.460938 496.945312 " fill-opacity="1" fill-rule="nonzero"/><path fill="#581717" d="M 505.582031 636.65625 C 505.582031 642.542969 500.804688 647.3125 494.925781 647.3125 C 489.035156 647.3125 484.265625 642.542969 484.265625 636.65625 C 484.265625 630.773438 489.035156 626.003906 494.925781 626.003906 C 500.804688 626.003906 505.582031 630.773438 505.582031 636.65625 " fill-opacity="1" fill-rule="nonzero"/><path fill="#581717" d="M 717.191406 292.113281 C 717.191406 300.4375 710.445312 307.1875 702.121094 307.1875 C 693.800781 307.1875 687.050781 300.4375 687.050781 292.113281 C 687.050781 283.792969 693.800781 277.042969 702.121094 277.042969 C 710.445312 277.042969 717.191406 283.792969 717.191406 292.113281 " fill-opacity="1" fill-rule="nonzero"/><path fill="#581717" d="M 524.203125 451.953125 C 524.203125 460.28125 517.457031 467.023438 509.132812 467.023438 C 500.804688 467.023438 494.0625 460.28125 494.0625 451.953125 C 494.0625 443.628906 500.804688 436.886719 509.132812 436.886719 C 517.457031 436.886719 524.203125 443.628906 524.203125 451.953125 " fill-opacity="1" fill-rule="nonzero"/><g clip-path="url(#0d22ec1063)"><g clip-path="url(#bb37bac251)"><path fill="#581717" d="M 720 333.902344 L 966.15625 333.902344 L 966.15625 580.058594 L 720 580.058594 Z M 720 333.902344 " fill-opacity="1" fill-rule="nonzero"/></g></g><g clip-path="url(#25e11f3a4d)"><g clip-path="url(#30c788ca58)"><g clip-path="url(#b15826cac2)"><path fill="#ffffff" d="M 928.925781 447.960938 C 928.589844 447.8125 928.238281 447.730469 927.871094 447.722656 C 927.507812 447.710938 927.152344 447.773438 926.808594 447.902344 C 926.464844 448.035156 926.160156 448.226562 925.894531 448.476562 C 925.628906 448.730469 925.421875 449.023438 925.269531 449.355469 L 910.328125 482.746094 L 883.589844 457.78125 C 883.324219 457.523438 883.015625 457.328125 882.671875 457.191406 C 882.324219 457.058594 881.964844 456.992188 881.59375 457.003906 C 881.222656 457.011719 880.871094 457.09375 880.53125 457.246094 C 880.191406 457.398438 879.894531 457.609375 879.640625 457.882812 C 879.390625 458.152344 879.199219 458.460938 879.070312 458.8125 C 878.941406 459.160156 878.882812 459.519531 878.902344 459.890625 C 878.917969 460.261719 879.003906 460.613281 879.164062 460.949219 C 879.320312 461.285156 879.539062 461.578125 879.816406 461.828125 L 905.453125 485.761719 L 897.167969 487.4375 C 896.808594 487.511719 896.476562 487.648438 896.171875 487.855469 C 895.867188 488.058594 895.613281 488.316406 895.410156 488.621094 C 895.207031 488.925781 895.070312 489.257812 895 489.617188 C 894.929688 489.980469 894.929688 490.339844 895.003906 490.699219 C 895.074219 491.058594 895.214844 491.390625 895.417969 491.695312 C 895.625 492 895.878906 492.25 896.183594 492.453125 C 896.492188 492.65625 896.824219 492.792969 897.183594 492.863281 C 897.542969 492.933594 897.902344 492.933594 898.261719 492.859375 L 909.109375 490.667969 L 910.75 498.800781 L 899.90625 500.996094 C 899.546875 501.066406 899.214844 501.207031 898.910156 501.410156 C 898.605469 501.617188 898.351562 501.871094 898.148438 502.175781 C 897.949219 502.480469 897.8125 502.816406 897.742188 503.175781 C 897.667969 503.535156 897.671875 503.894531 897.742188 504.253906 C 897.816406 504.613281 897.953125 504.945312 898.160156 505.25 C 898.363281 505.554688 898.621094 505.808594 898.925781 506.011719 C 899.230469 506.214844 899.5625 506.351562 899.921875 506.421875 C 900.285156 506.492188 900.644531 506.488281 901.003906 506.417969 L 911.847656 504.226562 L 915.082031 520.222656 C 915.15625 520.582031 915.292969 520.914062 915.496094 521.21875 C 915.703125 521.523438 915.957031 521.777344 916.261719 521.976562 C 916.570312 522.179688 916.902344 522.316406 917.261719 522.386719 C 917.621094 522.457031 917.980469 522.457031 918.339844 522.386719 C 918.699219 522.3125 919.03125 522.171875 919.335938 521.96875 C 919.640625 521.765625 919.894531 521.507812 920.097656 521.203125 C 920.300781 520.898438 920.4375 520.566406 920.507812 520.203125 C 920.578125 519.84375 920.578125 519.484375 920.503906 519.125 L 917.269531 503.128906 L 928.117188 500.9375 C 928.476562 500.863281 928.808594 500.726562 929.113281 500.519531 C 929.414062 500.316406 929.667969 500.0625 929.871094 499.753906 C 930.074219 499.449219 930.210938 499.117188 930.28125 498.757812 C 930.351562 498.398438 930.351562 498.035156 930.277344 497.675781 C 930.207031 497.316406 930.066406 496.984375 929.863281 496.679688 C 929.65625 496.378906 929.402344 496.125 929.097656 495.921875 C 928.792969 495.71875 928.457031 495.582031 928.097656 495.511719 C 927.738281 495.441406 927.378906 495.441406 927.019531 495.515625 L 916.175781 497.707031 L 914.53125 489.574219 L 925.375 487.378906 C 925.734375 487.308594 926.066406 487.167969 926.371094 486.964844 C 926.675781 486.757812 926.929688 486.503906 927.132812 486.199219 C 927.335938 485.894531 927.472656 485.558594 927.542969 485.199219 C 927.613281 484.839844 927.609375 484.480469 927.539062 484.121094 C 927.464844 483.761719 927.328125 483.429688 927.121094 483.125 C 926.917969 482.820312 926.664062 482.566406 926.355469 482.363281 C 926.050781 482.160156 925.71875 482.023438 925.359375 481.953125 C 925 481.882812 924.636719 481.886719 924.277344 481.957031 L 915.992188 483.632812 L 930.320312 451.617188 C 930.46875 451.28125 930.550781 450.933594 930.558594 450.566406 C 930.570312 450.199219 930.507812 449.84375 930.378906 449.5 C 930.25 449.160156 930.058594 448.855469 929.804688 448.585938 C 929.554688 448.320312 929.261719 448.113281 928.925781 447.960938 Z M 928.925781 447.960938 " fill-opacity="1" fill-rule="nonzero"/></g></g></g><g clip-path="url(#ef172f1701)"><g clip-path="url(#4a17b71d65)"><g clip-path="url(#e9493830a3)"><path fill="#ffffff" d="M 819.269531 538.152344 C 818.847656 538.359375 818.515625 538.632812 818.253906 539.050781 C 815.492188 543.164062 811.6875 546.449219 807.226562 548.605469 C 796.417969 553.824219 783.476562 551.382812 775.140625 543.238281 L 796.894531 532.734375 C 798.210938 532.097656 798.746094 530.566406 798.109375 529.25 C 797.476562 527.933594 795.941406 527.402344 794.628906 528.035156 L 771.652344 539.132812 C 770.78125 537.8125 770.144531 536.730469 769.554688 535.507812 C 768.964844 534.285156 768.515625 533.113281 768.023438 531.613281 L 790.949219 520.542969 C 792.265625 519.90625 792.800781 518.375 792.164062 517.058594 C 791.53125 515.742188 789.996094 515.207031 788.679688 515.84375 L 766.925781 526.347656 C 765.554688 514.265625 771.914062 503.082031 782.675781 497.886719 C 787.136719 495.730469 792.074219 494.792969 797.015625 495.1875 C 797.484375 495.195312 797.925781 495.15625 798.351562 494.949219 C 799.195312 494.542969 799.71875 493.710938 799.804688 492.800781 C 799.917969 491.355469 798.835938 490.078125 797.414062 490.011719 C 791.585938 489.464844 785.714844 490.621094 780.40625 493.1875 C 767.109375 499.605469 759.625 514.230469 761.992188 528.730469 L 756.261719 531.5 C 754.945312 532.132812 754.410156 533.667969 755.046875 534.980469 C 755.683594 536.296875 757.214844 536.832031 758.53125 536.195312 L 763.277344 533.90625 C 763.816406 535.382812 764.265625 536.554688 764.855469 537.777344 C 765.445312 539 766.085938 540.082031 766.90625 541.421875 L 762.160156 543.714844 C 760.84375 544.347656 760.3125 545.882812 760.945312 547.199219 C 761.582031 548.511719 763.113281 549.046875 764.429688 548.414062 L 770.160156 545.644531 C 780.046875 556.515625 796.152344 559.746094 809.449219 553.328125 C 814.757812 550.761719 819.246094 546.855469 822.578125 542.003906 C 823.386719 540.800781 823.058594 539.164062 821.882812 538.398438 C 821.09375 537.851562 820.117188 537.746094 819.269531 538.152344 Z M 819.269531 538.152344 " fill-opacity="1" fill-rule="nonzero"/></g></g></g><g fill="#ffffff" fill-opacity="1"><g transform="translate(752.030062, 409.590321)"><g><path d="M 27.515625 18.84375 C 26.085938 18.425781 25.625 17.347656 26.125 15.609375 L 27.859375 9.578125 C 22.785156 8.117188 18.722656 5.847656 15.671875 2.765625 C 12.617188 -0.316406 11.617188 -3.675781 12.671875 -7.3125 C 13.296875 -9.5 14.488281 -11.242188 16.25 -12.546875 C 18.019531 -13.847656 19.96875 -14.195312 22.09375 -13.59375 C 23.445312 -13.195312 24.476562 -12.523438 25.1875 -11.578125 C 25.90625 -10.640625 26.191406 -9.90625 26.046875 -9.375 C 26.015625 -9.289062 25.644531 -9.144531 24.9375 -8.9375 C 24.226562 -8.738281 23.503906 -8.289062 22.765625 -7.59375 C 22.035156 -6.90625 21.472656 -5.878906 21.078125 -4.515625 C 20.378906 -2.085938 20.816406 0.0195312 22.390625 1.8125 C 23.972656 3.613281 26.164062 4.914062 28.96875 5.71875 L 36.65625 -21.078125 C 33.0625 -23.992188 30.28125 -26.453125 28.3125 -28.453125 C 26.351562 -30.453125 24.859375 -32.800781 23.828125 -35.5 C 22.804688 -38.207031 22.769531 -41.226562 23.71875 -44.5625 C 24.675781 -47.894531 26.398438 -50.554688 28.890625 -52.546875 C 31.390625 -54.535156 34.226562 -55.789062 37.40625 -56.3125 C 40.59375 -56.832031 43.664062 -56.671875 46.625 -55.828125 L 48.375 -61.953125 C 48.875 -63.691406 49.835938 -64.351562 51.265625 -63.9375 C 52.796875 -63.507812 53.3125 -62.425781 52.8125 -60.6875 L 51.15625 -54.90625 C 55.832031 -53.5625 59.570312 -51.335938 62.375 -48.234375 C 65.175781 -45.140625 66.066406 -41.8125 65.046875 -38.25 C 64.328125 -35.75 63.128906 -33.9375 61.453125 -32.8125 C 59.785156 -31.695312 57.851562 -31.453125 55.65625 -32.078125 C 54.300781 -32.472656 53.242188 -33.144531 52.484375 -34.09375 C 51.734375 -35.050781 51.4375 -35.796875 51.59375 -36.328125 C 51.613281 -36.410156 51.992188 -36.523438 52.734375 -36.671875 C 53.472656 -36.828125 54.226562 -37.242188 55 -37.921875 C 55.769531 -38.609375 56.359375 -39.671875 56.765625 -41.109375 C 57.441406 -43.453125 57.125 -45.46875 55.8125 -47.15625 C 54.5 -48.851562 52.554688 -50.070312 49.984375 -50.8125 L 43.46875 -28.09375 C 56.132812 -18.5625 61.257812 -9.59375 58.84375 -1.1875 C 57.257812 4.332031 54.109375 8.097656 49.390625 10.109375 C 44.671875 12.117188 38.972656 12.363281 32.296875 10.84375 L 30.5625 16.875 C 30.0625 18.613281 29.046875 19.269531 27.515625 18.84375 Z M 45.515625 -51.96875 C 43.015625 -52.6875 40.523438 -52.519531 38.046875 -51.46875 C 35.566406 -50.414062 33.894531 -48.367188 33.03125 -45.328125 C 32.050781 -41.921875 32.171875 -39.207031 33.390625 -37.1875 C 34.609375 -35.164062 36.648438 -33.128906 39.515625 -31.078125 Z M 33.40625 6.984375 C 36.726562 7.941406 39.878906 7.78125 42.859375 6.5 C 45.847656 5.226562 47.816406 3.097656 48.765625 0.109375 C 49.742188 -3.304688 49.460938 -6.398438 47.921875 -9.171875 C 46.378906 -11.953125 43.90625 -14.816406 40.5 -17.765625 Z M 33.40625 6.984375 "/></g></g></g></svg>