<?xml version="1.0" encoding="UTF-8" standalone="no"?>
<!-- Created with Inkscape (http://www.inkscape.org/) -->

<svg
   width="119.27375mm"
   height="113.10856mm"
   viewBox="0 0 119.27375 113.10856"
   version="1.1"
   id="svg1"
   xmlns="http://www.w3.org/2000/svg"
   xmlns:svg="http://www.w3.org/2000/svg">
  <defs
     id="defs1" />
  <g
     id="layer1"
     transform="translate(-56.578515,-58.61463)">
    <path
       style="fill:#f9f9f9;stroke-width:0.264583"
       id="path6"
       d="M 56.586076,116.06951 A 59.636879,56.554276 0 0 1 115.2625,58.621851 59.636879,56.554276 0 0 1 175.84461,114.26223 59.636879,56.554276 0 0 1 117.17469,171.71587 59.636879,56.554276 0 0 1 56.586282,116.08165 l 59.629108,-0.91274 z" />
    <path
       style="fill:#ffd5d5;stroke-width:0.661215"
       id="path7"
       d="m 93.572537,106.17571 a 34.963497,34.464497 0 0 1 34.400413,-35.00893 34.963497,34.464497 0 0 1 35.51765,33.90756 34.963497,34.464497 0 0 1 -34.39659,35.01257 34.963497,34.464497 0 0 1 -35.521352,-33.9038 l 34.958942,-0.55623 z" />
  </g>
</svg>
