<svg xmlns="http://www.w3.org/2000/svg" xmlns:xlink="http://www.w3.org/1999/xlink" width="1080" zoomAndPan="magnify" viewBox="0 0 810 809.999993" height="1080" preserveAspectRatio="xMidYMid meet" version="1.0"><defs><filter x="0%" y="0%" width="100%" height="100%" id="052b27cde4"><feColorMatrix values="0 0 0 0 1 0 0 0 0 1 0 0 0 0 1 0 0 0 1 0" color-interpolation-filters="sRGB"/></filter><g/><mask id="ccab990164"><g filter="url(#052b27cde4)"><rect x="-81" width="972" fill="#000000" y="-80.999999" height="971.999992" fill-opacity="0.72"/></g></mask><clipPath id="51a0b320bc"><path d="M 1 0.839844 L 633.324219 0.839844 L 633.324219 633.160156 L 1 633.160156 Z M 1 0.839844 " clip-rule="nonzero"/></clipPath><clipPath id="8f66c67334"><path d="M 317.160156 0.839844 C 142.550781 0.839844 1 142.390625 1 317 C 1 491.609375 142.550781 633.160156 317.160156 633.160156 C 491.773438 633.160156 633.324219 491.609375 633.324219 317 C 633.324219 142.390625 491.773438 0.839844 317.160156 0.839844 Z M 317.160156 0.839844 " clip-rule="nonzero"/></clipPath><clipPath id="a314bb0c0a"><rect x="0" width="634" y="0" height="634"/></clipPath><clipPath id="0845e0e1de"><path d="M 498.8125 644 L 555 644 L 555 680 L 498.8125 680 Z M 498.8125 644 " clip-rule="nonzero"/></clipPath><clipPath id="ea2daf0cbd"><path d="M 498.8125 604 L 558 604 L 558 639 L 498.8125 639 Z M 498.8125 604 " clip-rule="nonzero"/></clipPath><clipPath id="cd16a83f65"><path d="M 562 592 L 664.5625 592 L 664.5625 721.027344 L 562 721.027344 Z M 562 592 " clip-rule="nonzero"/></clipPath><clipPath id="2b3114d4da"><path d="M 498.8125 564.277344 L 614 564.277344 L 614 599 L 498.8125 599 Z M 498.8125 564.277344 " clip-rule="nonzero"/></clipPath><clipPath id="2bbe156d70"><path d="M 503.074219 638 L 559 638 L 559 674 L 503.074219 674 Z M 503.074219 638 " clip-rule="nonzero"/></clipPath><clipPath id="af77d3ba5f"><path d="M 503.074219 598 L 562 598 L 562 633 L 503.074219 633 Z M 503.074219 598 " clip-rule="nonzero"/></clipPath><clipPath id="a08736fd5b"><path d="M 567 586 L 668.824219 586 L 668.824219 714.972656 L 567 714.972656 Z M 567 586 " clip-rule="nonzero"/></clipPath><clipPath id="625f5c1e76"><path d="M 503.074219 558.222656 L 618 558.222656 L 618 593 L 503.074219 593 Z M 503.074219 558.222656 " clip-rule="nonzero"/></clipPath></defs><g mask="url(#ccab990164)"><g transform="matrix(1, 0, 0, 1, 80, 88)"><g clip-path="url(#a314bb0c0a)"><g clip-path="url(#51a0b320bc)"><g clip-path="url(#8f66c67334)"><path fill="#ff5757" d="M 1 0.839844 L 633.324219 0.839844 L 633.324219 633.160156 L 1 633.160156 Z M 1 0.839844 " fill-opacity="1" fill-rule="nonzero"/></g></g></g></g></g><g fill="#ffffff" fill-opacity="0.4"><g transform="translate(192.6792, 618.279664)"><g><path d="M 141.609375 -185.765625 L 70.296875 -160.0625 L 85.703125 -72.390625 C 87.972656 -59.503906 90.476562 -50.722656 93.21875 -46.046875 C 95.957031 -41.378906 97.328125 -39.046875 97.328125 -39.046875 C 97.328125 -39.046875 96.019531 -37.914062 93.40625 -35.65625 C 90.800781 -33.394531 85.890625 -30.960938 78.671875 -28.359375 C 65.847656 -23.742188 56.617188 -23.773438 50.984375 -28.453125 C 45.347656 -33.128906 41.253906 -42.648438 38.703125 -57.015625 L 3.890625 -256.609375 C 3.078125 -260.273438 2.34375 -263.566406 1.6875 -266.484375 C 1.039062 -269.410156 0.296875 -272.039062 -0.546875 -274.375 L -4.046875 -273.109375 C -19.898438 -267.390625 -30.421875 -259.316406 -35.609375 -248.890625 C -40.796875 -238.460938 -41.582031 -228.234375 -37.96875 -218.203125 C -36.207031 -213.316406 -33.578125 -209.851562 -30.078125 -207.8125 C -26.585938 -205.78125 -22.628906 -205.5625 -18.203125 -207.15625 C -16.328125 -207.832031 -14.929688 -208.535156 -14.015625 -209.265625 C -13.097656 -210.003906 -12.640625 -210.375 -12.640625 -210.375 C -12.640625 -210.375 -12.492188 -210.160156 -12.203125 -209.734375 C -11.910156 -209.304688 -11.554688 -208.515625 -11.140625 -207.359375 C -9.628906 -203.148438 -10.285156 -198.03125 -13.109375 -192 C -15.941406 -185.976562 -21.789062 -181.375 -30.65625 -178.1875 C -42.082031 -174.0625 -52.210938 -174.03125 -61.046875 -178.09375 C -69.890625 -182.15625 -76.203125 -189.429688 -79.984375 -199.921875 C -86.203125 -217.160156 -83.710938 -234.179688 -72.515625 -250.984375 C -61.328125 -267.785156 -41.628906 -281.269531 -13.421875 -291.4375 L 11.046875 -300.265625 C 24.097656 -304.972656 33.382812 -304.960938 38.90625 -300.234375 C 44.425781 -295.515625 48.457031 -285.976562 51 -271.625 L 66.859375 -180.5625 L 138.171875 -206.265625 L 122.046875 -299.21875 C 119.785156 -312.101562 117.300781 -320.820312 114.59375 -325.375 C 111.894531 -329.9375 110.546875 -332.21875 110.546875 -332.21875 C 110.546875 -332.21875 111.851562 -333.34375 114.46875 -335.59375 C 117.082031 -337.84375 122.003906 -340.269531 129.234375 -342.875 C 142.285156 -347.582031 151.570312 -347.570312 157.09375 -342.84375 C 162.613281 -338.125 166.644531 -328.585938 169.1875 -314.234375 L 199.875 -139.234375 C 201.851562 -128.617188 205.253906 -121.546875 210.078125 -118.015625 C 214.910156 -114.484375 220.242188 -113.769531 226.078125 -115.875 C 231.910156 -117.96875 236.597656 -121.765625 240.140625 -127.265625 C 243.691406 -132.765625 246.410156 -138.550781 248.296875 -144.625 C 250.191406 -150.707031 251.363281 -155.675781 251.8125 -159.53125 C 256.945312 -161.382812 260.253906 -159.148438 261.734375 -152.828125 C 263.328125 -145.515625 262.539062 -136.742188 259.375 -126.515625 C 256.21875 -116.285156 251.066406 -106.65625 243.921875 -97.625 C 236.773438 -88.59375 227.835938 -82.144531 217.109375 -78.28125 C 204.753906 -73.820312 193.265625 -74.09375 182.640625 -79.09375 C 172.023438 -84.09375 164.328125 -93.226562 159.546875 -106.5 C 156.597656 -114.664062 154.1875 -122.625 152.3125 -130.375 C 150.4375 -138.125 148.632812 -146.957031 146.90625 -156.875 Z M 141.609375 -185.765625 "/></g></g></g><g fill="#ffffff" fill-opacity="0.4"><g transform="translate(469.937675, 518.318299)"><g><path d="M 92.265625 -88.171875 C 93.929688 -77.710938 93.835938 -68.460938 91.984375 -60.421875 C 95.128906 -60.492188 98.609375 -60.890625 102.421875 -61.609375 C 106.242188 -62.328125 110.253906 -63.441406 114.453125 -64.953125 C 133.335938 -71.765625 147.8125 -82.582031 157.875 -97.40625 C 167.9375 -112.238281 173.382812 -129.8125 174.21875 -150.125 C 175.0625 -170.4375 171.28125 -192.25 162.875 -215.5625 C 155.0625 -237.238281 144.164062 -254.316406 130.1875 -266.796875 C 116.207031 -279.273438 99.78125 -286.847656 80.90625 -289.515625 C 62.03125 -292.191406 41.519531 -289.539062 19.375 -281.5625 C 2.125 -275.332031 -10.84375 -268.015625 -19.53125 -259.609375 C -28.226562 -251.210938 -33.664062 -242.738281 -35.84375 -234.1875 C -38.019531 -225.632812 -37.890625 -217.976562 -35.453125 -211.21875 C -33.691406 -206.320312 -31.0625 -202.859375 -27.5625 -200.828125 C -24.070312 -198.796875 -20.113281 -198.578125 -15.6875 -200.171875 C -13.8125 -200.847656 -12.410156 -201.550781 -11.484375 -202.28125 C -10.566406 -203.007812 -10.109375 -203.375 -10.109375 -203.375 C -10.109375 -203.375 -9.960938 -203.160156 -9.671875 -202.734375 C -9.390625 -202.316406 -9.039062 -201.523438 -8.625 -200.359375 C -7.113281 -196.160156 -7.769531 -191.046875 -10.59375 -185.015625 C -13.425781 -178.992188 -19.273438 -174.390625 -28.140625 -171.203125 C -39.566406 -167.078125 -49.695312 -167.039062 -58.53125 -171.09375 C -67.375 -175.15625 -73.679688 -182.429688 -77.453125 -192.921875 C -81.660156 -204.578125 -81.453125 -216.960938 -76.828125 -230.078125 C -72.210938 -243.203125 -62.707031 -255.910156 -48.3125 -268.203125 C -33.914062 -280.503906 -14.238281 -291.148438 10.71875 -300.140625 C 42.875 -311.734375 72.578125 -316.257812 99.828125 -313.71875 C 127.085938 -311.175781 150.535156 -302.578125 170.171875 -287.921875 C 189.804688 -273.273438 204.203125 -253.242188 213.359375 -227.828125 C 223.359375 -200.097656 226.492188 -174.238281 222.765625 -150.25 C 219.046875 -126.257812 209.484375 -105.492188 194.078125 -87.953125 C 178.671875 -70.410156 158.492188 -57.144531 133.546875 -48.15625 C 123.066406 -44.375 113.503906 -42.039062 104.859375 -41.15625 C 96.222656 -40.28125 88.691406 -40.003906 82.265625 -40.328125 C 78.390625 -34.972656 73.613281 -30.484375 67.9375 -26.859375 C 62.269531 -23.242188 56.175781 -20.257812 49.65625 -17.90625 C 39.394531 -14.207031 31.332031 -13.734375 25.46875 -16.484375 C 19.601562 -19.242188 15.742188 -23.1875 13.890625 -28.3125 C 11.878906 -33.90625 12.210938 -39.554688 14.890625 -45.265625 C 17.566406 -50.972656 23.570312 -55.507812 32.90625 -58.875 C 36.863281 -60.300781 41.613281 -61.359375 47.15625 -62.046875 L 20.40625 -215.15625 C 18.132812 -228.03125 15.648438 -236.75 12.953125 -241.3125 C 10.253906 -245.875 8.90625 -248.15625 8.90625 -248.15625 C 8.90625 -248.15625 10.207031 -249.28125 12.8125 -251.53125 C 15.425781 -253.789062 20.347656 -256.226562 27.578125 -258.84375 C 40.640625 -263.539062 49.925781 -263.523438 55.4375 -258.796875 C 60.957031 -254.078125 64.988281 -244.535156 67.53125 -230.171875 Z M 92.265625 -88.171875 "/></g></g></g><g fill="#ffffff" fill-opacity="1"><g transform="translate(171.656622, 608.398852)"><g><path d="M 141.609375 -185.765625 L 70.296875 -160.0625 L 85.703125 -72.390625 C 87.972656 -59.503906 90.476562 -50.722656 93.21875 -46.046875 C 95.957031 -41.378906 97.328125 -39.046875 97.328125 -39.046875 C 97.328125 -39.046875 96.019531 -37.914062 93.40625 -35.65625 C 90.800781 -33.394531 85.890625 -30.960938 78.671875 -28.359375 C 65.847656 -23.742188 56.617188 -23.773438 50.984375 -28.453125 C 45.347656 -33.128906 41.253906 -42.648438 38.703125 -57.015625 L 3.890625 -256.609375 C 3.078125 -260.273438 2.34375 -263.566406 1.6875 -266.484375 C 1.039062 -269.410156 0.296875 -272.039062 -0.546875 -274.375 L -4.046875 -273.109375 C -19.898438 -267.390625 -30.421875 -259.316406 -35.609375 -248.890625 C -40.796875 -238.460938 -41.582031 -228.234375 -37.96875 -218.203125 C -36.207031 -213.316406 -33.578125 -209.851562 -30.078125 -207.8125 C -26.585938 -205.78125 -22.628906 -205.5625 -18.203125 -207.15625 C -16.328125 -207.832031 -14.929688 -208.535156 -14.015625 -209.265625 C -13.097656 -210.003906 -12.640625 -210.375 -12.640625 -210.375 C -12.640625 -210.375 -12.492188 -210.160156 -12.203125 -209.734375 C -11.910156 -209.304688 -11.554688 -208.515625 -11.140625 -207.359375 C -9.628906 -203.148438 -10.285156 -198.03125 -13.109375 -192 C -15.941406 -185.976562 -21.789062 -181.375 -30.65625 -178.1875 C -42.082031 -174.0625 -52.210938 -174.03125 -61.046875 -178.09375 C -69.890625 -182.15625 -76.203125 -189.429688 -79.984375 -199.921875 C -86.203125 -217.160156 -83.710938 -234.179688 -72.515625 -250.984375 C -61.328125 -267.785156 -41.628906 -281.269531 -13.421875 -291.4375 L 11.046875 -300.265625 C 24.097656 -304.972656 33.382812 -304.960938 38.90625 -300.234375 C 44.425781 -295.515625 48.457031 -285.976562 51 -271.625 L 66.859375 -180.5625 L 138.171875 -206.265625 L 122.046875 -299.21875 C 119.785156 -312.101562 117.300781 -320.820312 114.59375 -325.375 C 111.894531 -329.9375 110.546875 -332.21875 110.546875 -332.21875 C 110.546875 -332.21875 111.851562 -333.34375 114.46875 -335.59375 C 117.082031 -337.84375 122.003906 -340.269531 129.234375 -342.875 C 142.285156 -347.582031 151.570312 -347.570312 157.09375 -342.84375 C 162.613281 -338.125 166.644531 -328.585938 169.1875 -314.234375 L 199.875 -139.234375 C 201.851562 -128.617188 205.253906 -121.546875 210.078125 -118.015625 C 214.910156 -114.484375 220.242188 -113.769531 226.078125 -115.875 C 231.910156 -117.96875 236.597656 -121.765625 240.140625 -127.265625 C 243.691406 -132.765625 246.410156 -138.550781 248.296875 -144.625 C 250.191406 -150.707031 251.363281 -155.675781 251.8125 -159.53125 C 256.945312 -161.382812 260.253906 -159.148438 261.734375 -152.828125 C 263.328125 -145.515625 262.539062 -136.742188 259.375 -126.515625 C 256.21875 -116.285156 251.066406 -106.65625 243.921875 -97.625 C 236.773438 -88.59375 227.835938 -82.144531 217.109375 -78.28125 C 204.753906 -73.820312 193.265625 -74.09375 182.640625 -79.09375 C 172.023438 -84.09375 164.328125 -93.226562 159.546875 -106.5 C 156.597656 -114.664062 154.1875 -122.625 152.3125 -130.375 C 150.4375 -138.125 148.632812 -146.957031 146.90625 -156.875 Z M 141.609375 -185.765625 "/></g></g></g><g fill="#ffffff" fill-opacity="1"><g transform="translate(448.915097, 508.437488)"><g><path d="M 92.265625 -88.171875 C 93.929688 -77.710938 93.835938 -68.460938 91.984375 -60.421875 C 95.128906 -60.492188 98.609375 -60.890625 102.421875 -61.609375 C 106.242188 -62.328125 110.253906 -63.441406 114.453125 -64.953125 C 133.335938 -71.765625 147.8125 -82.582031 157.875 -97.40625 C 167.9375 -112.238281 173.382812 -129.8125 174.21875 -150.125 C 175.0625 -170.4375 171.28125 -192.25 162.875 -215.5625 C 155.0625 -237.238281 144.164062 -254.316406 130.1875 -266.796875 C 116.207031 -279.273438 99.78125 -286.847656 80.90625 -289.515625 C 62.03125 -292.191406 41.519531 -289.539062 19.375 -281.5625 C 2.125 -275.332031 -10.84375 -268.015625 -19.53125 -259.609375 C -28.226562 -251.210938 -33.664062 -242.738281 -35.84375 -234.1875 C -38.019531 -225.632812 -37.890625 -217.976562 -35.453125 -211.21875 C -33.691406 -206.320312 -31.0625 -202.859375 -27.5625 -200.828125 C -24.070312 -198.796875 -20.113281 -198.578125 -15.6875 -200.171875 C -13.8125 -200.847656 -12.410156 -201.550781 -11.484375 -202.28125 C -10.566406 -203.007812 -10.109375 -203.375 -10.109375 -203.375 C -10.109375 -203.375 -9.960938 -203.160156 -9.671875 -202.734375 C -9.390625 -202.316406 -9.039062 -201.523438 -8.625 -200.359375 C -7.113281 -196.160156 -7.769531 -191.046875 -10.59375 -185.015625 C -13.425781 -178.992188 -19.273438 -174.390625 -28.140625 -171.203125 C -39.566406 -167.078125 -49.695312 -167.039062 -58.53125 -171.09375 C -67.375 -175.15625 -73.679688 -182.429688 -77.453125 -192.921875 C -81.660156 -204.578125 -81.453125 -216.960938 -76.828125 -230.078125 C -72.210938 -243.203125 -62.707031 -255.910156 -48.3125 -268.203125 C -33.914062 -280.503906 -14.238281 -291.148438 10.71875 -300.140625 C 42.875 -311.734375 72.578125 -316.257812 99.828125 -313.71875 C 127.085938 -311.175781 150.535156 -302.578125 170.171875 -287.921875 C 189.804688 -273.273438 204.203125 -253.242188 213.359375 -227.828125 C 223.359375 -200.097656 226.492188 -174.238281 222.765625 -150.25 C 219.046875 -126.257812 209.484375 -105.492188 194.078125 -87.953125 C 178.671875 -70.410156 158.492188 -57.144531 133.546875 -48.15625 C 123.066406 -44.375 113.503906 -42.039062 104.859375 -41.15625 C 96.222656 -40.28125 88.691406 -40.003906 82.265625 -40.328125 C 78.390625 -34.972656 73.613281 -30.484375 67.9375 -26.859375 C 62.269531 -23.242188 56.175781 -20.257812 49.65625 -17.90625 C 39.394531 -14.207031 31.332031 -13.734375 25.46875 -16.484375 C 19.601562 -19.242188 15.742188 -23.1875 13.890625 -28.3125 C 11.878906 -33.90625 12.210938 -39.554688 14.890625 -45.265625 C 17.566406 -50.972656 23.570312 -55.507812 32.90625 -58.875 C 36.863281 -60.300781 41.613281 -61.359375 47.15625 -62.046875 L 20.40625 -215.15625 C 18.132812 -228.03125 15.648438 -236.75 12.953125 -241.3125 C 10.253906 -245.875 8.90625 -248.15625 8.90625 -248.15625 C 8.90625 -248.15625 10.207031 -249.28125 12.8125 -251.53125 C 15.425781 -253.789062 20.347656 -256.226562 27.578125 -258.84375 C 40.640625 -263.539062 49.925781 -263.523438 55.4375 -258.796875 C 60.957031 -254.078125 64.988281 -244.535156 67.53125 -230.171875 Z M 92.265625 -88.171875 "/></g></g></g><g clip-path="url(#0845e0e1de)"><path fill="#000000" d="M 554.496094 679.144531 L 554.496094 670.894531 C 554.496094 670.800781 554.496094 670.710938 554.496094 670.617188 C 554.496094 670.503906 554.496094 670.394531 554.496094 670.285156 L 554.496094 644.84375 L 504.359375 644.84375 C 501.292969 644.84375 498.8125 647.320312 498.8125 650.375 L 498.8125 678.035156 C 498.8125 678.648438 499.308594 679.144531 499.925781 679.144531 Z M 531.304688 656.277344 C 534.441406 656.277344 536.980469 658.8125 536.980469 661.9375 C 536.980469 665.066406 534.441406 667.601562 531.304688 667.601562 C 528.171875 667.601562 525.628906 665.066406 525.628906 661.9375 C 525.628906 658.8125 528.171875 656.277344 531.304688 656.277344 Z M 514.835938 656.277344 C 517.972656 656.277344 520.511719 658.8125 520.511719 661.9375 C 520.511719 665.066406 517.96875 667.601562 514.835938 667.601562 C 511.703125 667.601562 509.160156 665.066406 509.160156 661.9375 C 509.160156 658.8125 511.703125 656.277344 514.835938 656.277344 Z M 514.835938 656.277344 " fill-opacity="1" fill-rule="nonzero"/></g><g clip-path="url(#ea2daf0cbd)"><path fill="#000000" d="M 504.359375 604.566406 C 501.292969 604.566406 498.8125 607.042969 498.8125 610.097656 L 498.8125 637.757812 C 498.8125 638.371094 499.308594 638.867188 499.925781 638.867188 L 554.496094 638.867188 L 554.496094 615.140625 C 554.496094 615.046875 554.496094 614.953125 554.496094 614.859375 C 554.496094 614.746094 554.496094 614.636719 554.496094 614.527344 C 554.496094 611.082031 555.429688 607.691406 557.195312 604.5625 L 504.359375 604.5625 Z M 514.835938 627.324219 C 511.703125 627.324219 509.160156 624.789062 509.160156 621.660156 C 509.160156 618.535156 511.703125 616 514.835938 616 C 517.96875 616 520.511719 618.535156 520.511719 621.660156 C 520.511719 624.789062 517.972656 627.324219 514.835938 627.324219 Z M 531.304688 627.324219 C 528.171875 627.324219 525.628906 624.789062 525.628906 621.660156 C 525.628906 618.535156 528.171875 616 531.304688 616 C 534.441406 616 536.980469 618.535156 536.980469 621.660156 C 536.980469 624.789062 534.441406 627.324219 531.304688 627.324219 Z M 531.304688 627.324219 " fill-opacity="1" fill-rule="nonzero"/></g><g clip-path="url(#cd16a83f65)"><path fill="#000000" d="M 568.019531 709.113281 C 570.757812 711.574219 574.558594 713.742188 579.328125 715.554688 C 588.59375 719.082031 600.820312 721.023438 613.761719 721.023438 C 626.703125 721.023438 638.933594 719.082031 648.199219 715.554688 C 652.964844 713.742188 656.769531 711.574219 659.503906 709.113281 C 663.6875 705.351562 664.5625 701.582031 664.5625 699.078125 L 664.5625 670.894531 C 664.5625 670.816406 664.5625 670.734375 664.554688 670.65625 C 664.5625 670.53125 664.5625 670.40625 664.5625 670.285156 L 664.5625 615.140625 C 664.5625 615.058594 664.5625 614.980469 664.554688 614.898438 C 664.5625 614.773438 664.5625 614.648438 664.5625 614.527344 C 664.5625 612.027344 663.6875 608.253906 659.503906 604.496094 C 656.769531 602.035156 652.964844 599.867188 648.199219 598.050781 C 638.933594 594.527344 626.703125 592.585938 613.761719 592.585938 C 600.820312 592.585938 588.59375 594.527344 579.328125 598.050781 C 574.558594 599.867188 570.757812 602.035156 568.019531 604.496094 C 563.839844 608.253906 562.964844 612.027344 562.964844 614.527344 C 562.964844 614.648438 562.964844 614.773438 562.96875 614.898438 C 562.964844 614.980469 562.964844 615.058594 562.964844 615.140625 L 562.964844 670.285156 C 562.964844 670.40625 562.964844 670.53125 562.96875 670.65625 C 562.964844 670.734375 562.964844 670.816406 562.964844 670.894531 L 562.964844 699.078125 C 562.964844 701.582031 563.839844 705.351562 568.019531 709.113281 Z M 582.347656 605.945312 C 590.671875 602.777344 601.828125 601.035156 613.761719 601.035156 C 625.699219 601.035156 636.855469 602.777344 645.179688 605.945312 C 651.8125 608.46875 656.09375 611.839844 656.09375 614.527344 C 656.09375 617.21875 651.8125 620.589844 645.179688 623.113281 C 636.855469 626.28125 625.699219 628.023438 613.761719 628.023438 C 601.828125 628.023438 590.671875 626.28125 582.347656 623.113281 C 575.714844 620.589844 571.433594 617.222656 571.433594 614.527344 C 571.433594 611.835938 575.714844 608.46875 582.347656 605.945312 Z M 571.433594 642.101562 L 571.433594 627.132812 C 573.65625 628.554688 576.296875 629.851562 579.328125 631.007812 C 588.59375 634.53125 600.820312 636.472656 613.761719 636.472656 C 626.703125 636.472656 638.933594 634.53125 648.199219 631.007812 C 651.230469 629.851562 653.871094 628.554688 656.09375 627.132812 L 656.09375 643.324219 C 656.09375 646.015625 651.808594 649.382812 645.179688 651.90625 C 636.855469 655.074219 625.699219 656.816406 613.761719 656.816406 C 601.828125 656.816406 590.671875 655.074219 582.34375 651.90625 C 575.714844 649.382812 571.433594 646.015625 571.433594 643.324219 Z M 571.433594 655.925781 C 573.65625 657.347656 576.296875 658.644531 579.328125 659.800781 C 588.59375 663.324219 600.820312 665.265625 613.761719 665.265625 C 626.703125 665.265625 638.933594 663.324219 648.199219 659.800781 C 651.230469 658.644531 653.871094 657.347656 656.09375 655.925781 L 656.09375 670.285156 C 656.09375 672.976562 651.808594 676.34375 645.179688 678.867188 C 636.855469 682.035156 625.699219 683.78125 613.761719 683.78125 C 601.828125 683.78125 590.671875 682.035156 582.34375 678.867188 C 575.714844 676.34375 571.433594 672.976562 571.433594 670.285156 Z M 571.433594 682.886719 C 573.65625 684.3125 576.296875 685.609375 579.328125 686.761719 C 588.59375 690.289062 600.820312 692.230469 613.761719 692.230469 C 626.703125 692.230469 638.933594 690.289062 648.199219 686.761719 C 651.230469 685.609375 653.871094 684.3125 656.09375 682.886719 L 656.09375 699.078125 C 656.09375 701.769531 651.808594 705.140625 645.179688 707.660156 C 636.855469 710.828125 625.699219 712.574219 613.761719 712.574219 C 601.828125 712.574219 590.671875 710.828125 582.34375 707.660156 C 575.714844 705.136719 571.433594 701.769531 571.433594 699.078125 Z M 571.433594 682.886719 " fill-opacity="1" fill-rule="nonzero"/></g><g clip-path="url(#2b3114d4da)"><path fill="#000000" d="M 565.691406 592.597656 C 565.078125 592.597656 564.578125 592.097656 564.578125 591.484375 L 564.578125 573.28125 C 564.578125 572.667969 565.078125 572.167969 565.691406 572.167969 L 606.195312 572.167969 C 606.8125 572.167969 607.308594 572.667969 607.308594 573.28125 L 607.308594 584.289062 C 609.4375 584.1875 611.59375 584.136719 613.761719 584.136719 L 613.761719 569.820312 C 613.761719 566.765625 611.28125 564.289062 608.21875 564.289062 L 504.359375 564.289062 C 501.292969 564.289062 498.8125 566.765625 498.8125 569.820312 L 498.8125 597.480469 C 498.8125 598.09375 499.308594 598.589844 499.925781 598.589844 L 561.945312 598.589844 C 562.078125 598.464844 562.214844 598.34375 562.351562 598.21875 C 564.65625 596.144531 567.476562 594.261719 570.769531 592.597656 Z M 514.835938 587.046875 C 511.703125 587.046875 509.160156 584.511719 509.160156 581.382812 C 509.160156 578.257812 511.703125 575.722656 514.835938 575.722656 C 517.96875 575.722656 520.511719 578.257812 520.511719 581.382812 C 520.511719 584.511719 517.972656 587.046875 514.835938 587.046875 Z M 531.304688 587.046875 C 528.171875 587.046875 525.628906 584.511719 525.628906 581.382812 C 525.628906 578.257812 528.171875 575.722656 531.304688 575.722656 C 534.441406 575.722656 536.980469 578.257812 536.980469 581.382812 C 536.980469 584.511719 534.441406 587.046875 531.304688 587.046875 Z M 531.304688 587.046875 " fill-opacity="1" fill-rule="nonzero"/></g><g clip-path="url(#2bbe156d70)"><path fill="#ff5757" d="M 558.667969 673.183594 L 558.667969 664.925781 C 558.667969 664.832031 558.667969 664.738281 558.671875 664.644531 C 558.667969 664.53125 558.667969 664.421875 558.667969 664.316406 L 558.667969 638.851562 L 508.609375 638.851562 C 505.550781 638.851562 503.074219 641.328125 503.074219 644.386719 L 503.074219 672.070312 C 503.074219 672.683594 503.570312 673.183594 504.183594 673.183594 Z M 535.515625 650.292969 C 538.644531 650.292969 541.183594 652.832031 541.183594 655.960938 C 541.183594 659.089844 538.644531 661.628906 535.515625 661.628906 C 532.386719 661.628906 529.851562 659.089844 529.851562 655.960938 C 529.851562 652.832031 532.386719 650.292969 535.515625 650.292969 Z M 519.074219 650.292969 C 522.203125 650.292969 524.738281 652.832031 524.738281 655.960938 C 524.738281 659.089844 522.203125 661.628906 519.074219 661.628906 C 515.945312 661.628906 513.40625 659.089844 513.40625 655.960938 C 513.40625 652.832031 515.941406 650.292969 519.074219 650.292969 Z M 519.074219 650.292969 " fill-opacity="1" fill-rule="nonzero"/></g><g clip-path="url(#af77d3ba5f)"><path fill="#ff5757" d="M 508.609375 598.539062 C 505.550781 598.539062 503.074219 601.019531 503.074219 604.078125 L 503.074219 631.761719 C 503.074219 632.375 503.570312 632.871094 504.183594 632.871094 L 558.667969 632.871094 L 558.667969 609.125 C 558.667969 609.03125 558.667969 608.9375 558.671875 608.84375 C 558.667969 608.730469 558.667969 608.621094 558.667969 608.511719 C 558.667969 605.0625 559.601562 601.671875 561.367188 598.539062 Z M 519.074219 621.316406 C 515.941406 621.316406 513.40625 618.78125 513.40625 615.652344 C 513.40625 612.519531 515.945312 609.984375 519.074219 609.984375 C 522.203125 609.984375 524.738281 612.523438 524.738281 615.652344 C 524.738281 618.78125 522.203125 621.316406 519.074219 621.316406 Z M 535.515625 621.316406 C 532.386719 621.316406 529.851562 618.78125 529.851562 615.652344 C 529.851562 612.519531 532.386719 609.984375 535.515625 609.984375 C 538.644531 609.984375 541.183594 612.523438 541.183594 615.652344 C 541.183594 618.78125 538.644531 621.316406 535.515625 621.316406 Z M 535.515625 621.316406 " fill-opacity="1" fill-rule="nonzero"/></g><g clip-path="url(#a08736fd5b)"><path fill="#ff5757" d="M 572.175781 703.175781 C 574.90625 705.636719 578.703125 707.808594 583.464844 709.621094 C 592.714844 713.152344 604.925781 715.09375 617.84375 715.09375 C 630.765625 715.09375 642.976562 713.152344 652.226562 709.621094 C 656.988281 707.808594 660.785156 705.636719 663.515625 703.175781 C 667.691406 699.410156 668.566406 695.636719 668.566406 693.132812 L 668.566406 664.925781 C 668.566406 664.847656 668.5625 664.765625 668.558594 664.6875 C 668.5625 664.5625 668.566406 664.4375 668.566406 664.316406 L 668.566406 609.125 C 668.566406 609.042969 668.5625 608.964844 668.558594 608.882812 C 668.5625 608.757812 668.566406 608.632812 668.566406 608.511719 C 668.566406 606.007812 667.691406 602.234375 663.515625 598.46875 C 660.785156 596.007812 656.988281 593.835938 652.226562 592.023438 C 642.976562 588.492188 630.765625 586.550781 617.84375 586.550781 C 604.925781 586.550781 592.714844 588.492188 583.464844 592.023438 C 578.703125 593.839844 574.90625 596.007812 572.175781 598.46875 C 568 602.234375 567.125 606.007812 567.125 608.511719 C 567.125 608.632812 567.128906 608.757812 567.132812 608.882812 C 567.128906 608.964844 567.125 609.042969 567.125 609.125 L 567.125 664.316406 C 567.125 664.4375 567.128906 664.5625 567.132812 664.6875 C 567.128906 664.765625 567.125 664.847656 567.125 664.925781 L 567.125 693.132812 C 567.125 695.636719 568 699.410156 572.175781 703.175781 Z M 586.476562 599.921875 C 594.789062 596.753906 605.929688 595.007812 617.847656 595.007812 C 629.761719 595.007812 640.902344 596.753906 649.214844 599.921875 C 655.835938 602.449219 660.113281 605.820312 660.113281 608.511719 C 660.113281 611.207031 655.835938 614.578125 649.214844 617.101562 C 640.902344 620.273438 629.761719 622.019531 617.847656 622.019531 C 605.929688 622.019531 594.789062 620.273438 586.476562 617.101562 C 579.859375 614.578125 575.582031 611.207031 575.582031 608.511719 C 575.582031 605.820312 579.859375 602.449219 586.476562 599.921875 Z M 575.582031 636.109375 L 575.582031 621.125 C 577.800781 622.550781 580.4375 623.847656 583.464844 625.003906 C 592.714844 628.53125 604.925781 630.476562 617.84375 630.476562 C 630.765625 630.476562 642.976562 628.53125 652.226562 625.003906 C 655.253906 623.847656 657.890625 622.550781 660.109375 621.125 L 660.109375 637.332031 C 660.109375 640.023438 655.832031 643.394531 649.214844 645.921875 C 640.902344 649.089844 629.761719 650.835938 617.84375 650.835938 C 605.929688 650.835938 594.789062 649.089844 586.476562 645.921875 C 579.855469 643.394531 575.578125 640.023438 575.578125 637.332031 L 575.578125 636.109375 Z M 575.582031 649.945312 C 577.800781 651.367188 580.4375 652.667969 583.464844 653.820312 C 592.714844 657.347656 604.925781 659.292969 617.84375 659.292969 C 630.765625 659.292969 642.976562 657.347656 652.226562 653.820312 C 655.253906 652.667969 657.890625 651.367188 660.109375 649.945312 L 660.109375 664.316406 C 660.109375 667.007812 655.832031 670.378906 649.214844 672.90625 C 640.902344 676.074219 629.761719 677.820312 617.84375 677.820312 C 605.929688 677.820312 594.789062 676.074219 586.476562 672.90625 C 579.855469 670.378906 575.578125 667.007812 575.578125 664.316406 L 575.578125 649.945312 Z M 575.582031 676.929688 C 577.800781 678.355469 580.4375 679.652344 583.464844 680.804688 C 592.714844 684.335938 604.925781 686.277344 617.84375 686.277344 C 630.765625 686.277344 642.976562 684.335938 652.226562 680.804688 C 655.253906 679.652344 657.890625 678.355469 660.109375 676.929688 L 660.109375 693.132812 C 660.109375 695.824219 655.832031 699.199219 649.214844 701.722656 C 640.902344 704.894531 629.761719 706.640625 617.84375 706.640625 C 605.929688 706.640625 594.789062 704.894531 586.476562 701.722656 C 579.855469 699.195312 575.578125 695.824219 575.578125 693.132812 L 575.578125 676.929688 Z M 575.582031 676.929688 " fill-opacity="1" fill-rule="nonzero"/></g><g clip-path="url(#625f5c1e76)"><path fill="#ff5757" d="M 569.847656 586.5625 C 569.234375 586.5625 568.738281 586.066406 568.738281 585.449219 L 568.738281 567.230469 C 568.738281 566.617188 569.234375 566.117188 569.847656 566.117188 L 610.289062 566.117188 C 610.90625 566.117188 611.402344 566.617188 611.402344 567.230469 L 611.402344 578.25 C 613.527344 578.148438 615.679688 578.09375 617.847656 578.09375 L 617.847656 563.765625 C 617.847656 560.707031 615.367188 558.230469 612.308594 558.230469 L 508.609375 558.230469 C 505.550781 558.230469 503.074219 560.707031 503.074219 563.765625 L 503.074219 591.449219 C 503.074219 592.066406 503.570312 592.5625 504.183594 592.5625 L 566.109375 592.5625 C 566.242188 592.4375 566.375 592.3125 566.511719 592.191406 C 568.816406 590.113281 571.632812 588.230469 574.917969 586.5625 Z M 519.074219 581.007812 C 515.941406 581.007812 513.40625 578.46875 513.40625 575.339844 C 513.40625 572.210938 515.945312 569.675781 519.074219 569.675781 C 522.203125 569.675781 524.738281 572.210938 524.738281 575.339844 C 524.738281 578.46875 522.203125 581.007812 519.074219 581.007812 Z M 535.515625 581.007812 C 532.386719 581.007812 529.851562 578.46875 529.851562 575.339844 C 529.851562 572.210938 532.386719 569.675781 535.515625 569.675781 C 538.644531 569.675781 541.183594 572.210938 541.183594 575.339844 C 541.183594 578.46875 538.644531 581.007812 535.515625 581.007812 Z M 535.515625 581.007812 " fill-opacity="1" fill-rule="nonzero"/></g></svg>