<svg xmlns="http://www.w3.org/2000/svg" xmlns:xlink="http://www.w3.org/1999/xlink" width="1080" zoomAndPan="magnify" viewBox="0 0 810 809.999993" height="1080" preserveAspectRatio="xMidYMid meet" version="1.0"><defs><clipPath id="b8bcf9a2cc"><path d="M 22.375 21.3125 L 789.75 21.3125 L 789.75 788.6875 L 22.375 788.6875 Z M 22.375 21.3125 " clip-rule="nonzero"/></clipPath><clipPath id="a0143bd266"><path d="M 406.0625 21.3125 C 194.15625 21.3125 22.375 193.09375 22.375 405 C 22.375 616.90625 194.15625 788.6875 406.0625 788.6875 C 617.96875 788.6875 789.75 616.90625 789.75 405 C 789.75 193.09375 617.96875 21.3125 406.0625 21.3125 Z M 406.0625 21.3125 " clip-rule="nonzero"/></clipPath><clipPath id="c9fd9dc9f0"><path d="M 44.714844 510 L 767.410156 510 L 767.410156 627.820312 L 44.714844 627.820312 Z M 44.714844 510 " clip-rule="nonzero"/></clipPath><clipPath id="75bdae599c"><path d="M 140 145.605469 L 672 145.605469 L 672 482 L 140 482 Z M 140 145.605469 " clip-rule="nonzero"/></clipPath></defs><g clip-path="url(#b8bcf9a2cc)"><g clip-path="url(#a0143bd266)"><path fill="#f4ead2" d="M 22.375 21.3125 L 789.75 21.3125 L 789.75 788.6875 L 22.375 788.6875 Z M 22.375 21.3125 " fill-opacity="1" fill-rule="nonzero"/></g></g><g clip-path="url(#c9fd9dc9f0)"><path fill="#62b7b4" d="M 510.328125 597.46875 L 301.796875 597.46875 C 300.363281 597.46875 299.441406 595.953125 300.101562 594.683594 L 316.152344 563.785156 C 316.480469 563.152344 317.136719 562.757812 317.847656 562.757812 L 494.277344 562.757812 C 494.988281 562.757812 495.640625 563.152344 495.96875 563.785156 L 512.019531 594.683594 C 512.683594 595.953125 511.761719 597.46875 510.328125 597.46875 Z M 762.800781 600.972656 L 676.445312 514.625 C 673.5 511.671875 669.5 510.015625 665.328125 510.015625 L 146.792969 510.015625 C 142.621094 510.015625 138.625 511.671875 135.671875 514.625 L 49.320312 600.972656 C 46.367188 603.925781 44.714844 607.925781 44.714844 612.097656 C 44.714844 620.78125 51.753906 627.820312 60.4375 627.820312 L 751.683594 627.820312 C 760.367188 627.820312 767.410156 620.78125 767.410156 612.097656 C 767.410156 607.925781 765.753906 603.925781 762.800781 600.972656 " fill-opacity="1" fill-rule="nonzero"/></g><g clip-path="url(#75bdae599c)"><path fill="#62b7b4" d="M 645.996094 145.777344 L 166.125 145.777344 C 152.242188 145.777344 140.882812 157.136719 140.882812 171.019531 L 140.882812 455.921875 C 140.882812 469.804688 152.242188 481.164062 166.125 481.164062 L 645.996094 481.164062 C 659.878906 481.164062 671.238281 469.804688 671.238281 455.921875 L 671.238281 171.019531 C 671.238281 157.136719 659.878906 145.777344 645.996094 145.777344 Z M 642.023438 174.996094 L 642.023438 451.945312 L 170.101562 451.945312 L 170.101562 174.996094 L 642.023438 174.996094 " fill-opacity="1" fill-rule="nonzero"/></g></svg>