<svg xmlns="http://www.w3.org/2000/svg" xmlns:xlink="http://www.w3.org/1999/xlink" width="1080" zoomAndPan="magnify" viewBox="0 0 810 809.999993" height="1080" preserveAspectRatio="xMidYMid meet" version="1.0"><defs><clipPath id="434d5b81f5"><path d="M 22.375 21.3125 L 789.75 21.3125 L 789.75 788.6875 L 22.375 788.6875 Z M 22.375 21.3125 " clip-rule="nonzero"/></clipPath><clipPath id="b0cf3b059e"><path d="M 406.0625 21.3125 C 194.15625 21.3125 22.375 193.09375 22.375 405 C 22.375 616.90625 194.15625 788.6875 406.0625 788.6875 C 617.96875 788.6875 789.75 616.90625 789.75 405 C 789.75 193.09375 617.96875 21.3125 406.0625 21.3125 Z M 406.0625 21.3125 " clip-rule="nonzero"/></clipPath><clipPath id="2c4bafaf0e"><path d="M 83.125 83.125 L 728.875 83.125 L 728.875 728.875 L 83.125 728.875 Z M 83.125 83.125 " clip-rule="nonzero"/></clipPath></defs><g clip-path="url(#434d5b81f5)"><g clip-path="url(#b0cf3b059e)"><path fill="#f4ead2" d="M 22.375 21.3125 L 789.75 21.3125 L 789.75 788.6875 L 22.375 788.6875 Z M 22.375 21.3125 " fill-opacity="1" fill-rule="nonzero"/></g></g><g clip-path="url(#2c4bafaf0e)"><path fill="#62b7b4" d="M 193.113281 83.125 C 174.144531 83.125 157.113281 93.652344 148.671875 110.585938 L 89.675781 228.53125 C 85.40625 237.121094 83.125 246.726562 83.125 256.285156 L 83.125 381.21875 C 83.125 396.113281 89.867188 409.359375 100.300781 418.480469 C 89.867188 427.601562 83.125 440.847656 83.125 455.742188 L 83.125 530.265625 C 83.125 545.160156 89.867188 558.402344 100.300781 567.527344 C 89.867188 576.648438 83.125 589.890625 83.125 604.785156 L 83.125 679.308594 C 83.125 706.722656 105.394531 728.992188 132.808594 728.992188 L 679.308594 728.992188 C 706.722656 728.992188 728.992188 706.722656 728.992188 679.308594 L 728.992188 604.785156 C 728.992188 589.890625 722.25 576.648438 711.816406 567.527344 C 722.25 558.402344 728.992188 545.160156 728.992188 530.265625 L 728.992188 455.742188 C 728.992188 440.847656 722.25 427.601562 711.816406 418.480469 C 722.25 409.359375 728.992188 396.113281 728.992188 381.21875 L 728.992188 256.285156 C 728.992188 246.726562 726.710938 237.121094 722.441406 228.53125 L 663.445312 110.585938 C 655.003906 93.652344 637.972656 83.125 619.003906 83.125 Z M 193.113281 107.964844 L 619.003906 107.964844 C 628.464844 107.964844 637.003906 113.253906 641.222656 121.695312 L 700.222656 239.644531 C 702.792969 244.785156 704.152344 250.558594 704.152344 256.285156 L 704.152344 257.011719 L 107.964844 257.011719 L 107.964844 256.285156 C 107.964844 250.558594 109.324219 244.785156 111.894531 239.644531 L 170.84375 121.695312 C 175.113281 113.253906 183.605469 107.964844 193.113281 107.964844 Z M 194.910156 132.808594 C 188.019531 132.808594 182.488281 138.339844 182.488281 145.226562 C 182.488281 152.117188 188.019531 157.648438 194.910156 157.648438 L 517.84375 157.648438 C 524.734375 157.648438 530.265625 152.117188 530.265625 145.226562 C 530.265625 138.339844 524.734375 132.808594 517.84375 132.808594 Z M 567.527344 132.808594 C 560.636719 132.808594 555.105469 138.339844 555.105469 145.226562 C 555.105469 152.117188 560.636719 157.648438 567.527344 157.648438 L 617.207031 157.648438 C 624.097656 157.648438 629.628906 152.117188 629.628906 145.226562 C 629.628906 138.339844 624.097656 132.808594 617.207031 132.808594 Z M 107.964844 281.851562 L 704.152344 281.851562 L 704.152344 381.21875 C 704.152344 394.898438 692.992188 406.058594 679.308594 406.058594 L 132.808594 406.058594 C 119.125 406.058594 107.964844 394.898438 107.964844 381.21875 Z M 617.207031 306.695312 C 596.683594 306.695312 579.945312 323.433594 579.945312 343.957031 C 579.945312 364.480469 596.683594 381.21875 617.207031 381.21875 C 637.730469 381.21875 654.46875 364.480469 654.46875 343.957031 C 654.46875 323.433594 637.730469 306.695312 617.207031 306.695312 Z M 170.070312 319.113281 C 163.179688 319.113281 157.648438 324.644531 157.648438 331.535156 L 157.648438 356.375 C 157.648438 363.265625 163.179688 368.796875 170.070312 368.796875 C 176.957031 368.796875 182.488281 363.265625 182.488281 356.375 L 182.488281 331.535156 C 182.488281 324.644531 176.957031 319.113281 170.070312 319.113281 Z M 232.171875 319.113281 C 225.28125 319.113281 219.75 324.644531 219.75 331.535156 L 219.75 356.375 C 219.75 363.265625 225.28125 368.796875 232.171875 368.796875 C 239.0625 368.796875 244.59375 363.265625 244.59375 356.375 L 244.59375 331.535156 C 244.59375 324.644531 239.0625 319.113281 232.171875 319.113281 Z M 294.273438 319.113281 C 287.382812 319.113281 281.851562 324.644531 281.851562 331.535156 L 281.851562 356.375 C 281.851562 363.265625 287.382812 368.796875 294.273438 368.796875 C 301.164062 368.796875 306.695312 363.265625 306.695312 356.375 L 306.695312 331.535156 C 306.695312 324.644531 301.164062 319.113281 294.273438 319.113281 Z M 356.375 319.113281 C 349.488281 319.113281 343.957031 324.644531 343.957031 331.535156 L 343.957031 356.375 C 343.957031 363.265625 349.488281 368.796875 356.375 368.796875 C 363.265625 368.796875 368.796875 363.265625 368.796875 356.375 L 368.796875 331.535156 C 368.796875 324.644531 363.265625 319.113281 356.375 319.113281 Z M 418.480469 319.113281 C 411.589844 319.113281 406.058594 324.644531 406.058594 331.535156 L 406.058594 356.375 C 406.058594 363.265625 411.589844 368.796875 418.480469 368.796875 C 425.367188 368.796875 430.898438 363.265625 430.898438 356.375 L 430.898438 331.535156 C 430.898438 324.644531 425.367188 319.113281 418.480469 319.113281 Z M 617.207031 328.964844 C 625.503906 328.964844 632.199219 335.707031 632.199219 343.957031 C 632.199219 352.253906 625.457031 358.949219 617.207031 358.949219 C 608.960938 358.949219 602.214844 352.253906 602.214844 343.957031 C 602.214844 335.660156 608.910156 328.964844 617.207031 328.964844 Z M 468.160156 331.535156 C 461.273438 331.535156 455.742188 337.066406 455.742188 343.957031 C 455.742188 350.84375 461.273438 356.375 468.160156 356.375 L 542.683594 356.375 C 549.574219 356.375 555.105469 350.84375 555.105469 343.957031 C 555.105469 337.066406 549.574219 331.535156 542.683594 331.535156 Z M 132.808594 430.898438 L 679.308594 430.898438 C 692.992188 430.898438 704.152344 442.058594 704.152344 455.742188 L 704.152344 530.265625 C 704.152344 543.945312 692.992188 555.105469 679.308594 555.105469 L 132.808594 555.105469 C 119.125 555.105469 107.964844 543.945312 107.964844 530.265625 L 107.964844 455.742188 C 107.964844 442.058594 119.125 430.898438 132.808594 430.898438 Z M 617.207031 455.742188 C 596.683594 455.742188 579.945312 472.480469 579.945312 493.003906 C 579.945312 513.523438 596.683594 530.265625 617.207031 530.265625 C 637.730469 530.265625 654.46875 513.523438 654.46875 493.003906 C 654.46875 472.480469 637.730469 455.742188 617.207031 455.742188 Z M 170.070312 468.160156 C 163.179688 468.160156 157.648438 473.691406 157.648438 480.582031 L 157.648438 505.421875 C 157.648438 512.3125 163.179688 517.84375 170.070312 517.84375 C 176.957031 517.84375 182.488281 512.3125 182.488281 505.421875 L 182.488281 480.582031 C 182.488281 473.691406 176.957031 468.160156 170.070312 468.160156 Z M 232.171875 468.160156 C 225.28125 468.160156 219.75 473.691406 219.75 480.582031 L 219.75 505.421875 C 219.75 512.3125 225.28125 517.84375 232.171875 517.84375 C 239.0625 517.84375 244.59375 512.3125 244.59375 505.421875 L 244.59375 480.582031 C 244.59375 473.691406 239.0625 468.160156 232.171875 468.160156 Z M 294.273438 468.160156 C 287.382812 468.160156 281.851562 473.691406 281.851562 480.582031 L 281.851562 505.421875 C 281.851562 512.3125 287.382812 517.84375 294.273438 517.84375 C 301.164062 517.84375 306.695312 512.3125 306.695312 505.421875 L 306.695312 480.582031 C 306.695312 473.691406 301.164062 468.160156 294.273438 468.160156 Z M 356.375 468.160156 C 349.488281 468.160156 343.957031 473.691406 343.957031 480.582031 L 343.957031 505.421875 C 343.957031 512.3125 349.488281 517.84375 356.375 517.84375 C 363.265625 517.84375 368.796875 512.3125 368.796875 505.421875 L 368.796875 480.582031 C 368.796875 473.691406 363.265625 468.160156 356.375 468.160156 Z M 418.480469 468.160156 C 411.589844 468.160156 406.058594 473.691406 406.058594 480.582031 L 406.058594 505.421875 C 406.058594 512.3125 411.589844 517.84375 418.480469 517.84375 C 425.367188 517.84375 430.898438 512.3125 430.898438 505.421875 L 430.898438 480.582031 C 430.898438 473.691406 425.367188 468.160156 418.480469 468.160156 Z M 617.207031 478.011719 C 625.457031 478.011719 632.199219 484.753906 632.199219 493.003906 C 632.199219 501.300781 625.503906 507.996094 617.207031 507.996094 C 608.910156 507.996094 602.214844 501.25 602.214844 493.003906 C 602.214844 484.707031 608.960938 478.011719 617.207031 478.011719 Z M 468.160156 480.582031 C 461.273438 480.582031 455.742188 486.113281 455.742188 493.003906 C 455.742188 499.890625 461.273438 505.421875 468.160156 505.421875 L 542.683594 505.421875 C 549.574219 505.421875 555.105469 499.890625 555.105469 493.003906 C 555.105469 486.113281 549.574219 480.582031 542.683594 480.582031 Z M 132.808594 579.945312 L 679.308594 579.945312 C 692.992188 579.945312 704.152344 591.105469 704.152344 604.785156 L 704.152344 679.308594 C 704.152344 692.992188 692.992188 704.152344 679.308594 704.152344 L 132.808594 704.152344 C 119.125 704.152344 107.964844 692.992188 107.964844 679.308594 L 107.964844 604.785156 C 107.964844 591.105469 119.125 579.945312 132.808594 579.945312 Z M 617.207031 604.785156 C 596.683594 604.785156 579.945312 621.527344 579.945312 642.046875 C 579.945312 662.570312 596.683594 679.308594 617.207031 679.308594 C 637.730469 679.308594 654.46875 662.570312 654.46875 642.046875 C 654.46875 621.527344 637.730469 604.785156 617.207031 604.785156 Z M 170.070312 617.207031 C 163.179688 617.207031 157.648438 622.738281 157.648438 629.628906 L 157.648438 654.46875 C 157.648438 661.359375 163.179688 666.890625 170.070312 666.890625 C 176.957031 666.890625 182.488281 661.359375 182.488281 654.46875 L 182.488281 629.628906 C 182.488281 622.738281 176.957031 617.207031 170.070312 617.207031 Z M 232.171875 617.207031 C 225.28125 617.207031 219.75 622.738281 219.75 629.628906 L 219.75 654.46875 C 219.75 661.359375 225.28125 666.890625 232.171875 666.890625 C 239.0625 666.890625 244.59375 661.359375 244.59375 654.46875 L 244.59375 629.628906 C 244.59375 622.738281 239.0625 617.207031 232.171875 617.207031 Z M 294.273438 617.207031 C 287.382812 617.207031 281.851562 622.738281 281.851562 629.628906 L 281.851562 654.46875 C 281.851562 661.359375 287.382812 666.890625 294.273438 666.890625 C 301.164062 666.890625 306.695312 661.359375 306.695312 654.46875 L 306.695312 629.628906 C 306.695312 622.738281 301.164062 617.207031 294.273438 617.207031 Z M 356.375 617.207031 C 349.488281 617.207031 343.957031 622.738281 343.957031 629.628906 L 343.957031 654.46875 C 343.957031 661.359375 349.488281 666.890625 356.375 666.890625 C 363.265625 666.890625 368.796875 661.359375 368.796875 654.46875 L 368.796875 629.628906 C 368.796875 622.738281 363.265625 617.207031 356.375 617.207031 Z M 418.480469 617.207031 C 411.589844 617.207031 406.058594 622.738281 406.058594 629.628906 L 406.058594 654.46875 C 406.058594 661.359375 411.589844 666.890625 418.480469 666.890625 C 425.367188 666.890625 430.898438 661.359375 430.898438 654.46875 L 430.898438 629.628906 C 430.898438 622.738281 425.367188 617.207031 418.480469 617.207031 Z M 617.207031 626.523438 C 625.796875 626.523438 632.734375 633.460938 632.734375 642.046875 C 632.734375 650.636719 625.796875 657.574219 617.207031 657.574219 C 608.621094 657.574219 601.683594 650.636719 601.683594 642.046875 C 601.683594 633.460938 608.621094 626.523438 617.207031 626.523438 Z M 468.160156 629.628906 C 461.273438 629.628906 455.742188 635.160156 455.742188 642.046875 C 455.742188 648.9375 461.273438 654.46875 468.160156 654.46875 L 542.683594 654.46875 C 549.574219 654.46875 555.105469 648.9375 555.105469 642.046875 C 555.105469 635.160156 549.574219 629.628906 542.683594 629.628906 Z M 468.160156 629.628906 " fill-opacity="1" fill-rule="nonzero"/></g></svg>