<svg xmlns="http://www.w3.org/2000/svg" xmlns:xlink="http://www.w3.org/1999/xlink" width="1920" zoomAndPan="magnify" viewBox="0 0 1440 809.999993" height="1080" preserveAspectRatio="xMidYMid meet" version="1.0"><defs><clipPath id="4970dd6339"><path d="M 356.359375 0 L 1440 0 L 1440 809.992188 L 356.359375 809.992188 Z M 356.359375 0 " clip-rule="nonzero"/></clipPath><clipPath id="3f58b5d596"><path d="M 4 452.949219 L 992 452.949219 L 992 810 L 4 810 Z M 4 452.949219 " clip-rule="nonzero"/></clipPath><clipPath id="49ea6226d3"><path d="M 997.105469 514.21875 L 1239.355469 514.21875 L 1239.355469 810 L 997.105469 810 Z M 997.105469 514.21875 " clip-rule="nonzero"/></clipPath></defs><g clip-path="url(#4970dd6339)"><path fill="#975ab6" d="M 356.46875 765.527344 C 356.410156 780.421875 357.71875 795.3125 360.25 809.992188 L 1439.941406 809.992188 L 1439.941406 -6.796875 C 1435.570312 5.507812 1430.917969 17.695312 1425.4375 29.550781 C 1411.8125 58.988281 1392.332031 86.925781 1364.40625 103.433594 C 1344.101562 115.4375 1320.398438 120.738281 1296.851562 122.148438 C 1273.300781 123.558594 1249.707031 121.253906 1226.226562 118.972656 C 1202.746094 116.699219 1179.144531 114.445312 1155.601562 115.96875 C 1132.066406 117.484375 1108.386719 122.960938 1088.191406 135.148438 C 1065.722656 148.722656 1048.640625 170.003906 1036.652344 193.359375 C 1024.660156 216.710938 1017.425781 242.191406 1011.347656 267.730469 C 1005.273438 293.269531 1000.265625 319.105469 992.371094 344.144531 C 984.480469 369.183594 973.53125 393.621094 956.832031 413.871094 C 938.078125 436.613281 912.628906 453.285156 885.253906 464.21875 C 857.878906 475.144531 828.5625 480.554688 799.203125 483.183594 C 740.484375 488.445312 680.984375 482.824219 622.617188 491.113281 C 561.738281 499.761719 502.660156 524.007812 455.457031 563.425781 C 408.25 602.84375 373.441406 657.707031 361.28125 717.988281 C 358.125 733.636719 356.542969 749.578125 356.46875 765.527344 Z M 356.46875 765.527344 " fill-opacity="1" fill-rule="nonzero"/></g><g clip-path="url(#3f58b5d596)"><path fill="#24356e" d="M 991.984375 810.777344 L 4.511719 810.777344 L 4.511719 452.949219 C 4.511719 452.949219 152.117188 552.855469 330.820312 552.855469 C 487.386719 552.855469 633.292969 452.949219 779.472656 452.949219 C 922.945312 452.949219 991.972656 511.707031 991.972656 511.707031 Z M 991.984375 810.777344 " fill-opacity="1" fill-rule="nonzero"/></g><g clip-path="url(#49ea6226d3)"><path fill="#ff66c4" d="M 1010.300781 514.253906 C 1005.882812 514.238281 1001.460938 514.625 997.105469 515.378906 L 997.105469 835.757812 L 1239.476562 835.757812 C 1235.824219 834.460938 1232.207031 833.082031 1228.6875 831.453125 C 1219.953125 827.410156 1211.664062 821.628906 1206.765625 813.34375 C 1203.203125 807.320312 1201.628906 800.285156 1201.210938 793.296875 C 1200.792969 786.308594 1201.476562 779.308594 1202.15625 772.339844 C 1202.828125 765.375 1203.496094 758.371094 1203.046875 751.386719 C 1202.597656 744.402344 1200.972656 737.375 1197.355469 731.382812 C 1193.328125 724.714844 1187.011719 719.644531 1180.082031 716.085938 C 1173.152344 712.53125 1165.589844 710.382812 1158.011719 708.582031 C 1150.433594 706.777344 1142.769531 705.289062 1135.339844 702.949219 C 1127.910156 700.609375 1120.65625 697.359375 1114.648438 692.402344 C 1107.898438 686.839844 1102.953125 679.285156 1099.707031 671.164062 C 1096.46875 663.039062 1094.859375 654.339844 1094.082031 645.628906 C 1092.519531 628.203125 1094.1875 610.550781 1091.726562 593.230469 C 1089.160156 575.164062 1081.96875 557.632812 1070.269531 543.628906 C 1058.574219 529.621094 1042.292969 519.292969 1024.40625 515.683594 C 1019.761719 514.746094 1015.035156 514.277344 1010.300781 514.253906 Z M 1010.300781 514.253906 " fill-opacity="1" fill-rule="nonzero"/></g></svg>