<svg xmlns="http://www.w3.org/2000/svg" xmlns:xlink="http://www.w3.org/1999/xlink" width="1080" zoomAndPan="magnify" viewBox="0 0 810 809.999993" height="1080" preserveAspectRatio="xMidYMid meet" version="1.0"><defs><filter x="0%" y="0%" width="100%" height="100%" id="7f04386701"><feColorMatrix values="0 0 0 0 1 0 0 0 0 1 0 0 0 0 1 0 0 0 1 0" color-interpolation-filters="sRGB"/></filter><mask id="3c5eb2abed"><g filter="url(#7f04386701)"><rect x="-81" width="972" fill="#000000" y="-80.999999" height="971.999992" fill-opacity="0.72"/></g></mask><clipPath id="f5bc700ee8"><path d="M 1 0.839844 L 633.324219 0.839844 L 633.324219 633.160156 L 1 633.160156 Z M 1 0.839844 " clip-rule="nonzero"/></clipPath><clipPath id="4626143bb9"><path d="M 317.160156 0.839844 C 142.550781 0.839844 1 142.390625 1 317 C 1 491.609375 142.550781 633.160156 317.160156 633.160156 C 491.773438 633.160156 633.324219 491.609375 633.324219 317 C 633.324219 142.390625 491.773438 0.839844 317.160156 0.839844 Z M 317.160156 0.839844 " clip-rule="nonzero"/></clipPath><linearGradient x1="0" gradientTransform="matrix(2.47001, 0, 0, 2.47001, 0.999999, 0.838724)" y1="0" x2="256" gradientUnits="userSpaceOnUse" y2="0" id="c19ff98134"><stop stop-opacity="1" stop-color="rgb(100%, 16.899109%, 16.899109%)" offset="0"/><stop stop-opacity="1" stop-color="rgb(100%, 17.063904%, 16.96167%)" offset="0.0078125"/><stop stop-opacity="1" stop-color="rgb(100%, 17.39502%, 17.086792%)" offset="0.015625"/><stop stop-opacity="1" stop-color="rgb(100%, 17.724609%, 17.211914%)" offset="0.0234375"/><stop stop-opacity="1" stop-color="rgb(100%, 18.055725%, 17.337036%)" offset="0.03125"/><stop stop-opacity="1" stop-color="rgb(100%, 18.385315%, 17.462158%)" offset="0.0390625"/><stop stop-opacity="1" stop-color="rgb(100%, 18.716431%, 17.58728%)" offset="0.046875"/><stop stop-opacity="1" stop-color="rgb(100%, 19.047546%, 17.712402%)" offset="0.0546875"/><stop stop-opacity="1" stop-color="rgb(100%, 19.377136%, 17.835999%)" offset="0.0625"/><stop stop-opacity="1" stop-color="rgb(100%, 19.708252%, 17.961121%)" offset="0.0703125"/><stop stop-opacity="1" stop-color="rgb(100%, 20.037842%, 18.086243%)" offset="0.078125"/><stop stop-opacity="1" stop-color="rgb(100%, 20.368958%, 18.211365%)" offset="0.0859375"/><stop stop-opacity="1" stop-color="rgb(100%, 20.698547%, 18.336487%)" offset="0.09375"/><stop stop-opacity="1" stop-color="rgb(100%, 21.029663%, 18.461609%)" offset="0.101562"/><stop stop-opacity="1" stop-color="rgb(100%, 21.360779%, 18.586731%)" offset="0.109375"/><stop stop-opacity="1" stop-color="rgb(100%, 21.690369%, 18.711853%)" offset="0.117188"/><stop stop-opacity="1" stop-color="rgb(100%, 22.021484%, 18.836975%)" offset="0.125"/><stop stop-opacity="1" stop-color="rgb(100%, 22.351074%, 18.962097%)" offset="0.132812"/><stop stop-opacity="1" stop-color="rgb(100%, 22.68219%, 19.087219%)" offset="0.140625"/><stop stop-opacity="1" stop-color="rgb(100%, 23.01178%, 19.212341%)" offset="0.148438"/><stop stop-opacity="1" stop-color="rgb(100%, 23.342896%, 19.335938%)" offset="0.15625"/><stop stop-opacity="1" stop-color="rgb(100%, 23.674011%, 19.46106%)" offset="0.164062"/><stop stop-opacity="1" stop-color="rgb(100%, 24.003601%, 19.586182%)" offset="0.171875"/><stop stop-opacity="1" stop-color="rgb(100%, 24.334717%, 19.711304%)" offset="0.179688"/><stop stop-opacity="1" stop-color="rgb(100%, 24.664307%, 19.836426%)" offset="0.1875"/><stop stop-opacity="1" stop-color="rgb(100%, 24.995422%, 19.961548%)" offset="0.195312"/><stop stop-opacity="1" stop-color="rgb(100%, 25.325012%, 20.08667%)" offset="0.203125"/><stop stop-opacity="1" stop-color="rgb(100%, 25.656128%, 20.211792%)" offset="0.210938"/><stop stop-opacity="1" stop-color="rgb(100%, 25.987244%, 20.336914%)" offset="0.21875"/><stop stop-opacity="1" stop-color="rgb(100%, 26.316833%, 20.462036%)" offset="0.226562"/><stop stop-opacity="1" stop-color="rgb(100%, 26.647949%, 20.587158%)" offset="0.234375"/><stop stop-opacity="1" stop-color="rgb(100%, 26.977539%, 20.71228%)" offset="0.242188"/><stop stop-opacity="1" stop-color="rgb(100%, 27.308655%, 20.837402%)" offset="0.25"/><stop stop-opacity="1" stop-color="rgb(100%, 27.639771%, 20.960999%)" offset="0.257812"/><stop stop-opacity="1" stop-color="rgb(100%, 27.96936%, 21.086121%)" offset="0.265625"/><stop stop-opacity="1" stop-color="rgb(100%, 28.300476%, 21.211243%)" offset="0.273438"/><stop stop-opacity="1" stop-color="rgb(100%, 28.630066%, 21.336365%)" offset="0.28125"/><stop stop-opacity="1" stop-color="rgb(100%, 28.961182%, 21.461487%)" offset="0.289062"/><stop stop-opacity="1" stop-color="rgb(100%, 29.290771%, 21.586609%)" offset="0.296875"/><stop stop-opacity="1" stop-color="rgb(100%, 29.621887%, 21.711731%)" offset="0.304688"/><stop stop-opacity="1" stop-color="rgb(100%, 29.953003%, 21.836853%)" offset="0.3125"/><stop stop-opacity="1" stop-color="rgb(100%, 30.282593%, 21.961975%)" offset="0.320312"/><stop stop-opacity="1" stop-color="rgb(100%, 30.613708%, 22.087097%)" offset="0.328125"/><stop stop-opacity="1" stop-color="rgb(100%, 30.943298%, 22.212219%)" offset="0.335938"/><stop stop-opacity="1" stop-color="rgb(100%, 31.274414%, 22.337341%)" offset="0.34375"/><stop stop-opacity="1" stop-color="rgb(100%, 31.604004%, 22.460938%)" offset="0.351562"/><stop stop-opacity="1" stop-color="rgb(100%, 31.93512%, 22.58606%)" offset="0.359375"/><stop stop-opacity="1" stop-color="rgb(100%, 32.266235%, 22.711182%)" offset="0.367188"/><stop stop-opacity="1" stop-color="rgb(100%, 32.595825%, 22.836304%)" offset="0.375"/><stop stop-opacity="1" stop-color="rgb(100%, 32.926941%, 22.961426%)" offset="0.382812"/><stop stop-opacity="1" stop-color="rgb(100%, 33.256531%, 23.086548%)" offset="0.390625"/><stop stop-opacity="1" stop-color="rgb(100%, 33.587646%, 23.21167%)" offset="0.398438"/><stop stop-opacity="1" stop-color="rgb(100%, 33.917236%, 23.336792%)" offset="0.40625"/><stop stop-opacity="1" stop-color="rgb(100%, 34.248352%, 23.461914%)" offset="0.414062"/><stop stop-opacity="1" stop-color="rgb(100%, 34.579468%, 23.587036%)" offset="0.421875"/><stop stop-opacity="1" stop-color="rgb(100%, 34.909058%, 23.712158%)" offset="0.429688"/><stop stop-opacity="1" stop-color="rgb(100%, 35.240173%, 23.83728%)" offset="0.4375"/><stop stop-opacity="1" stop-color="rgb(100%, 35.569763%, 23.962402%)" offset="0.445312"/><stop stop-opacity="1" stop-color="rgb(100%, 35.900879%, 24.085999%)" offset="0.453125"/><stop stop-opacity="1" stop-color="rgb(100%, 36.230469%, 24.211121%)" offset="0.460938"/><stop stop-opacity="1" stop-color="rgb(100%, 36.561584%, 24.336243%)" offset="0.46875"/><stop stop-opacity="1" stop-color="rgb(100%, 36.8927%, 24.461365%)" offset="0.476562"/><stop stop-opacity="1" stop-color="rgb(100%, 37.22229%, 24.586487%)" offset="0.484375"/><stop stop-opacity="1" stop-color="rgb(100%, 37.553406%, 24.711609%)" offset="0.492188"/><stop stop-opacity="1" stop-color="rgb(100%, 37.882996%, 24.836731%)" offset="0.5"/><stop stop-opacity="1" stop-color="rgb(100%, 38.214111%, 24.961853%)" offset="0.507812"/><stop stop-opacity="1" stop-color="rgb(100%, 38.545227%, 25.086975%)" offset="0.515625"/><stop stop-opacity="1" stop-color="rgb(100%, 38.874817%, 25.212097%)" offset="0.523438"/><stop stop-opacity="1" stop-color="rgb(100%, 39.205933%, 25.337219%)" offset="0.53125"/><stop stop-opacity="1" stop-color="rgb(100%, 39.535522%, 25.462341%)" offset="0.539062"/><stop stop-opacity="1" stop-color="rgb(100%, 39.866638%, 25.585938%)" offset="0.546875"/><stop stop-opacity="1" stop-color="rgb(100%, 40.196228%, 25.71106%)" offset="0.554688"/><stop stop-opacity="1" stop-color="rgb(100%, 40.527344%, 25.836182%)" offset="0.5625"/><stop stop-opacity="1" stop-color="rgb(100%, 40.858459%, 25.961304%)" offset="0.570312"/><stop stop-opacity="1" stop-color="rgb(100%, 41.188049%, 26.086426%)" offset="0.578125"/><stop stop-opacity="1" stop-color="rgb(100%, 41.519165%, 26.211548%)" offset="0.585938"/><stop stop-opacity="1" stop-color="rgb(100%, 41.848755%, 26.33667%)" offset="0.59375"/><stop stop-opacity="1" stop-color="rgb(100%, 42.179871%, 26.461792%)" offset="0.601562"/><stop stop-opacity="1" stop-color="rgb(100%, 42.50946%, 26.586914%)" offset="0.609375"/><stop stop-opacity="1" stop-color="rgb(100%, 42.840576%, 26.712036%)" offset="0.617188"/><stop stop-opacity="1" stop-color="rgb(100%, 43.171692%, 26.837158%)" offset="0.625"/><stop stop-opacity="1" stop-color="rgb(100%, 43.501282%, 26.96228%)" offset="0.632812"/><stop stop-opacity="1" stop-color="rgb(100%, 43.832397%, 27.087402%)" offset="0.640625"/><stop stop-opacity="1" stop-color="rgb(100%, 44.161987%, 27.210999%)" offset="0.648438"/><stop stop-opacity="1" stop-color="rgb(100%, 44.493103%, 27.336121%)" offset="0.65625"/><stop stop-opacity="1" stop-color="rgb(100%, 44.822693%, 27.461243%)" offset="0.664062"/><stop stop-opacity="1" stop-color="rgb(100%, 45.153809%, 27.586365%)" offset="0.671875"/><stop stop-opacity="1" stop-color="rgb(100%, 45.484924%, 27.711487%)" offset="0.679688"/><stop stop-opacity="1" stop-color="rgb(100%, 45.814514%, 27.836609%)" offset="0.6875"/><stop stop-opacity="1" stop-color="rgb(100%, 46.14563%, 27.961731%)" offset="0.695312"/><stop stop-opacity="1" stop-color="rgb(100%, 46.47522%, 28.086853%)" offset="0.703125"/><stop stop-opacity="1" stop-color="rgb(100%, 46.806335%, 28.211975%)" offset="0.710938"/><stop stop-opacity="1" stop-color="rgb(100%, 47.137451%, 28.337097%)" offset="0.71875"/><stop stop-opacity="1" stop-color="rgb(100%, 47.467041%, 28.462219%)" offset="0.726562"/><stop stop-opacity="1" stop-color="rgb(100%, 47.798157%, 28.587341%)" offset="0.734375"/><stop stop-opacity="1" stop-color="rgb(100%, 48.127747%, 28.710938%)" offset="0.742188"/><stop stop-opacity="1" stop-color="rgb(100%, 48.458862%, 28.83606%)" offset="0.75"/><stop stop-opacity="1" stop-color="rgb(100%, 48.788452%, 28.961182%)" offset="0.757812"/><stop stop-opacity="1" stop-color="rgb(100%, 49.119568%, 29.086304%)" offset="0.765625"/><stop stop-opacity="1" stop-color="rgb(100%, 49.450684%, 29.211426%)" offset="0.773438"/><stop stop-opacity="1" stop-color="rgb(100%, 49.780273%, 29.336548%)" offset="0.78125"/><stop stop-opacity="1" stop-color="rgb(100%, 50.111389%, 29.46167%)" offset="0.789062"/><stop stop-opacity="1" stop-color="rgb(100%, 50.440979%, 29.586792%)" offset="0.796875"/><stop stop-opacity="1" stop-color="rgb(100%, 50.772095%, 29.711914%)" offset="0.804688"/><stop stop-opacity="1" stop-color="rgb(100%, 51.101685%, 29.837036%)" offset="0.8125"/><stop stop-opacity="1" stop-color="rgb(100%, 51.4328%, 29.962158%)" offset="0.820312"/><stop stop-opacity="1" stop-color="rgb(100%, 51.763916%, 30.08728%)" offset="0.828125"/><stop stop-opacity="1" stop-color="rgb(100%, 52.093506%, 30.212402%)" offset="0.835938"/><stop stop-opacity="1" stop-color="rgb(100%, 52.424622%, 30.335999%)" offset="0.84375"/><stop stop-opacity="1" stop-color="rgb(100%, 52.754211%, 30.461121%)" offset="0.851562"/><stop stop-opacity="1" stop-color="rgb(100%, 53.085327%, 30.586243%)" offset="0.859375"/><stop stop-opacity="1" stop-color="rgb(100%, 53.414917%, 30.711365%)" offset="0.867188"/><stop stop-opacity="1" stop-color="rgb(100%, 53.746033%, 30.836487%)" offset="0.875"/><stop stop-opacity="1" stop-color="rgb(100%, 54.077148%, 30.961609%)" offset="0.882812"/><stop stop-opacity="1" stop-color="rgb(100%, 54.406738%, 31.086731%)" offset="0.890625"/><stop stop-opacity="1" stop-color="rgb(100%, 54.737854%, 31.211853%)" offset="0.898438"/><stop stop-opacity="1" stop-color="rgb(100%, 55.067444%, 31.336975%)" offset="0.90625"/><stop stop-opacity="1" stop-color="rgb(100%, 55.39856%, 31.462097%)" offset="0.914062"/><stop stop-opacity="1" stop-color="rgb(100%, 55.728149%, 31.587219%)" offset="0.921875"/><stop stop-opacity="1" stop-color="rgb(100%, 56.059265%, 31.712341%)" offset="0.929688"/><stop stop-opacity="1" stop-color="rgb(100%, 56.390381%, 31.835938%)" offset="0.9375"/><stop stop-opacity="1" stop-color="rgb(100%, 56.719971%, 31.96106%)" offset="0.945312"/><stop stop-opacity="1" stop-color="rgb(100%, 57.051086%, 32.086182%)" offset="0.953125"/><stop stop-opacity="1" stop-color="rgb(100%, 57.380676%, 32.211304%)" offset="0.960938"/><stop stop-opacity="1" stop-color="rgb(100%, 57.711792%, 32.336426%)" offset="0.96875"/><stop stop-opacity="1" stop-color="rgb(100%, 58.042908%, 32.461548%)" offset="0.976562"/><stop stop-opacity="1" stop-color="rgb(100%, 58.372498%, 32.58667%)" offset="0.984375"/><stop stop-opacity="1" stop-color="rgb(100%, 58.703613%, 32.711792%)" offset="0.992188"/><stop stop-opacity="1" stop-color="rgb(100%, 59.033203%, 32.836914%)" offset="1"/></linearGradient><clipPath id="0f8b2c29d7"><rect x="0" width="634" y="0" height="634"/></clipPath><clipPath id="04f2761a35"><path d="M 478 388 L 624.582031 388 L 624.582031 594 L 478 594 Z M 478 388 " clip-rule="nonzero"/></clipPath><clipPath id="842ce1015d"><path d="M 375 450 L 468 450 L 468 652.394531 L 375 652.394531 Z M 375 450 " clip-rule="nonzero"/></clipPath><clipPath id="726e193e0e"><path d="M 202 542 L 300 542 L 300 634 L 202 634 Z M 202 542 " clip-rule="nonzero"/></clipPath><clipPath id="a148d9d768"><path d="M 174.191406 495.382812 L 281.058594 457.894531 L 332.449219 604.394531 L 225.582031 641.878906 Z M 174.191406 495.382812 " clip-rule="nonzero"/></clipPath><clipPath id="59918c3c3c"><path d="M 174.191406 495.382812 L 281.058594 457.894531 L 332.449219 604.394531 L 225.582031 641.878906 Z M 174.191406 495.382812 " clip-rule="nonzero"/></clipPath><clipPath id="e01bba6528"><path d="M 194 478 L 237 478 L 237 559 L 194 559 Z M 194 478 " clip-rule="nonzero"/></clipPath><clipPath id="760d8271e2"><path d="M 174.191406 495.382812 L 281.058594 457.894531 L 332.449219 604.394531 L 225.582031 641.878906 Z M 174.191406 495.382812 " clip-rule="nonzero"/></clipPath><clipPath id="30f2aaaf31"><path d="M 174.191406 495.382812 L 281.058594 457.894531 L 332.449219 604.394531 L 225.582031 641.878906 Z M 174.191406 495.382812 " clip-rule="nonzero"/></clipPath><clipPath id="9999a6f4a7"><path d="M 237 494 L 300 494 L 300 550 L 237 550 Z M 237 494 " clip-rule="nonzero"/></clipPath><clipPath id="4437083944"><path d="M 174.191406 495.382812 L 281.058594 457.894531 L 332.449219 604.394531 L 225.582031 641.878906 Z M 174.191406 495.382812 " clip-rule="nonzero"/></clipPath><clipPath id="cf5fdf4c24"><path d="M 174.191406 495.382812 L 281.058594 457.894531 L 332.449219 604.394531 L 225.582031 641.878906 Z M 174.191406 495.382812 " clip-rule="nonzero"/></clipPath><clipPath id="3ffc9bb9b6"><path d="M 265 577 L 301 577 L 301 621 L 265 621 Z M 265 577 " clip-rule="nonzero"/></clipPath><clipPath id="730005793a"><path d="M 174.191406 495.382812 L 281.058594 457.894531 L 332.449219 604.394531 L 225.582031 641.878906 Z M 174.191406 495.382812 " clip-rule="nonzero"/></clipPath><clipPath id="4197b70773"><path d="M 174.191406 495.382812 L 281.058594 457.894531 L 332.449219 604.394531 L 225.582031 641.878906 Z M 174.191406 495.382812 " clip-rule="nonzero"/></clipPath></defs><g mask="url(#3c5eb2abed)"><g transform="matrix(1, 0, 0, 1, 80, 88)"><g clip-path="url(#0f8b2c29d7)"><g clip-path="url(#f5bc700ee8)"><g clip-path="url(#4626143bb9)"><path fill="url(#c19ff98134)" d="M 1 0.839844 L 1 633.160156 L 633.324219 633.160156 L 633.324219 0.839844 Z M 1 0.839844 " fill-rule="nonzero"/></g></g></g></g></g><g clip-path="url(#04f2761a35)"><path fill="#1c191a" d="M 528.957031 388.117188 L 514.332031 511.867188 C 512.769531 511.613281 511.164062 511.5 509.496094 511.542969 C 506.21875 511.617188 502.875 512.265625 499.566406 513.46875 C 485.492188 518.558594 476.304688 531.902344 478.644531 543.839844 C 480.421875 552.957031 488.691406 559.078125 499.207031 559.078125 C 499.429688 559.078125 499.652344 559.078125 499.867188 559.074219 C 503.148438 558.996094 506.5 558.347656 509.816406 557.144531 C 521.160156 553.039062 529.703125 543.355469 531.09375 532.957031 L 542.625 435.214844 L 601.699219 466.699219 L 592.328125 546.125 C 590.808594 545.886719 589.195312 545.78125 587.636719 545.820312 C 584.363281 545.898438 581.023438 546.542969 577.710938 547.738281 C 563.648438 552.832031 554.457031 566.175781 556.789062 578.128906 C 558.574219 587.242188 566.835938 593.363281 577.355469 593.363281 C 577.574219 593.363281 577.792969 593.359375 578.015625 593.355469 C 581.296875 593.277344 584.640625 592.628906 587.964844 591.421875 C 599.289062 587.324219 607.773438 577.6875 609.082031 567.402344 L 624.5 436.832031 L 528.957031 388.117188 " fill-opacity="1" fill-rule="nonzero"/></g><g clip-path="url(#842ce1015d)"><path fill="#1c191a" d="M 445.644531 488.800781 C 443.644531 487.21875 441.480469 485.703125 439.015625 484.144531 C 437.902344 483.445312 436.777344 482.78125 435.683594 482.164062 C 434.398438 481.4375 433.234375 480.832031 432.15625 480.285156 C 430.796875 479.605469 429.460938 478.957031 428.148438 478.320312 C 425.382812 476.984375 422.773438 475.726562 420.515625 474.351562 C 417.53125 472.566406 415.351562 470.605469 414.023438 468.519531 C 413.644531 467.925781 412.847656 466.269531 412.207031 464.945312 L 411.15625 462.804688 C 410.1875 460.8125 409.082031 458.5625 406.875 455.609375 C 404.667969 452.675781 401.339844 450.996094 397.757812 450.996094 C 396.347656 450.996094 394.949219 451.257812 393.636719 451.765625 C 393.125 451.957031 392.621094 452.1875 392.113281 452.460938 C 386.925781 455.292969 384.097656 461.484375 385.242188 467.523438 L 411.828125 584.746094 C 409.101562 585.054688 406.34375 585.746094 403.601562 586.796875 C 399.550781 588.351562 395.664062 590.648438 392.054688 593.621094 C 376.71875 606.25 371.054688 626.90625 379.171875 640.652344 C 383.464844 647.90625 391.039062 652.070312 399.945312 652.070312 C 403.773438 652.070312 407.695312 651.3125 411.589844 649.816406 C 415.65625 648.257812 419.546875 645.953125 423.167969 642.976562 C 435.53125 632.773438 441.914062 616.96875 439.027344 603.582031 L 415.582031 500.214844 C 416.816406 500.664062 418.027344 501.078125 419.226562 501.496094 C 420.488281 501.933594 421.730469 502.359375 422.832031 502.761719 L 425.726562 503.886719 C 426.835938 504.363281 427.691406 504.742188 428.4375 505.109375 C 430.207031 505.949219 431.929688 506.878906 433.582031 507.890625 C 440.757812 512.234375 445.859375 517.820312 448.769531 524.558594 C 451.925781 531.621094 452.703125 540.765625 450.960938 550.359375 C 450.320312 554.019531 452.40625 557.578125 455.824219 558.640625 C 457.292969 559.085938 458.867188 559.042969 460.363281 558.476562 C 462.519531 557.644531 464.136719 555.855469 464.800781 553.601562 C 468.605469 540.933594 468.847656 527.96875 465.484375 517.136719 C 462.183594 506.300781 455.328125 496.511719 445.644531 488.800781 " fill-opacity="1" fill-rule="nonzero"/></g><path fill="#1c191a" d="M 494.277344 387.054688 C 493.5625 385.949219 492.757812 384.847656 491.820312 383.683594 C 491.390625 383.160156 490.953125 382.640625 490.527344 382.15625 C 490.019531 381.589844 489.554688 381.101562 489.117188 380.65625 C 488.570312 380.101562 488.023438 379.5625 487.496094 379.039062 C 486.371094 377.921875 485.304688 376.871094 484.433594 375.828125 C 483.28125 374.457031 482.542969 373.140625 482.242188 371.902344 C 482.15625 371.550781 482.042969 370.613281 481.949219 369.859375 L 481.789062 368.640625 C 481.648438 367.511719 481.484375 366.230469 480.902344 364.425781 C 480.3125 362.625 478.972656 361.253906 477.222656 360.65625 C 476.535156 360.421875 475.816406 360.320312 475.085938 360.339844 C 474.808594 360.351562 474.527344 360.378906 474.234375 360.433594 C 471.238281 360.945312 468.832031 363.488281 468.386719 366.617188 L 461.886719 428.144531 C 460.503906 427.839844 459.050781 427.71875 457.539062 427.773438 C 455.304688 427.855469 453.035156 428.324219 450.785156 429.175781 C 441.214844 432.765625 435.03125 441.882812 436.703125 449.925781 C 437.585938 454.179688 440.585938 457.46875 444.929688 458.953125 C 446.789062 459.589844 448.824219 459.875 450.972656 459.796875 C 453.210938 459.714844 455.488281 459.242188 457.746094 458.394531 C 465.460938 455.488281 471.191406 448.859375 472.007812 441.851562 L 477.738281 387.601562 C 478.269531 388.023438 478.789062 388.429688 479.300781 388.832031 C 479.847656 389.257812 480.378906 389.667969 480.847656 390.050781 L 482.070312 391.082031 C 482.535156 391.5 482.882812 391.824219 483.191406 392.125 C 483.914062 392.828125 484.597656 393.570312 485.234375 394.335938 C 488.007812 397.652344 489.566406 401.21875 489.867188 404.992188 C 490.230469 408.953125 489.089844 413.539062 486.648438 417.921875 C 485.730469 419.597656 486.15625 421.679688 487.640625 422.761719 C 488.285156 423.226562 489.0625 423.46875 489.882812 423.441406 C 491.074219 423.398438 492.15625 422.792969 492.855469 421.808594 C 496.808594 416.269531 499.074219 410 499.238281 404.160156 C 499.425781 398.332031 497.710938 392.425781 494.277344 387.054688 " fill-opacity="1" fill-rule="nonzero"/><g clip-path="url(#726e193e0e)"><g clip-path="url(#a148d9d768)"><g clip-path="url(#59918c3c3c)"><path fill="#ffffff" d="M 286.160156 544.5 C 275.699219 547.878906 265.28125 551.390625 254.847656 554.859375 C 253.382812 555.347656 251.933594 555.882812 250.363281 556.433594 C 249.359375 554.195312 248.441406 552.691406 245.78125 553.222656 C 242.15625 553.941406 241.457031 556.367188 241.703125 559.496094 C 238.726562 560.542969 236.039062 561.496094 233.347656 562.429688 C 224.4375 565.492188 215.511719 568.527344 206.613281 571.621094 C 204.683594 572.292969 202.476562 572.808594 202.363281 575.6875 C 205.503906 577.320312 208.414062 576.210938 211.183594 575.347656 C 220.1875 572.550781 229.128906 569.570312 238.097656 566.679688 C 239.425781 566.246094 240.78125 565.898438 242.503906 565.40625 C 243.347656 573.253906 244.152344 580.71875 245.03125 588.835938 C 238.722656 587.699219 233.332031 588.878906 228.34375 591.664062 C 218.867188 596.957031 214.972656 608.410156 218.488281 619.613281 C 220.796875 626.976562 225.570312 631.816406 233.085938 633.085938 C 240.988281 634.410156 248.722656 632.8125 256.082031 629.660156 C 258.582031 628.589844 259.757812 626.714844 259.484375 623.894531 C 259.089844 619.777344 259.113281 615.613281 258.492188 611.535156 C 256.753906 600.109375 254.726562 588.730469 252.929688 577.3125 C 252.15625 572.410156 251.667969 567.464844 251.019531 562.292969 C 252.816406 561.664062 254.285156 561.144531 255.75 560.636719 C 265.875 557.152344 276.015625 553.695312 286.125 550.164062 C 289.21875 549.078125 292.296875 547.910156 295.28125 546.550781 C 296.699219 545.902344 297.871094 544.722656 299.15625 543.78125 C 299.054688 543.429688 298.953125 543.082031 298.851562 542.730469 C 297.523438 542.621094 296.152344 542.25 294.882812 542.472656 C 291.941406 542.984375 288.980469 543.585938 286.140625 544.503906 Z M 246.785156 601.515625 C 248.210938 609.070312 249.46875 616.660156 250.84375 624.578125 C 243.234375 631.199219 235.28125 627.484375 231.457031 621.382812 C 226.839844 614.007812 226.460938 605.933594 230.339844 598.085938 C 233.144531 592.390625 241.015625 591.816406 244.910156 596.84375 C 245.902344 598.125 246.484375 599.890625 246.789062 601.519531 Z M 246.785156 601.515625 " fill-opacity="1" fill-rule="nonzero"/></g></g></g><g clip-path="url(#e01bba6528)"><g clip-path="url(#760d8271e2)"><g clip-path="url(#30f2aaaf31)"><path fill="#ffffff" d="M 209.933594 558.175781 C 218.117188 559.75 226.128906 558.089844 233.746094 554.742188 C 236.097656 553.707031 237.125 551.863281 236.898438 549.25 C 236.511719 544.988281 236.496094 540.6875 235.863281 536.46875 C 233.925781 523.625 231.730469 510.820312 229.71875 497.988281 C 228.875 492.636719 228.40625 487.21875 227.453125 481.882812 C 226.789062 478.15625 225.105469 477.582031 221.589844 479.011719 C 219.425781 479.894531 219.058594 481.433594 219.273438 483.46875 C 220.214844 492.265625 221.117188 501.074219 222.023438 509.875 C 222.148438 511.128906 222.207031 512.382812 222.308594 513.824219 C 221.027344 513.761719 220.046875 513.726562 219.074219 513.65625 C 214.046875 513.3125 209.429688 514.695312 205.191406 517.25 C 196.121094 522.730469 192.511719 533.769531 195.855469 544.679688 C 198.066406 551.878906 202.636719 556.785156 209.941406 558.179688 Z M 207.578125 523.542969 C 209.773438 518.945312 213.539062 517.5625 218.296875 519.226562 C 221.503906 520.347656 223.515625 522.585938 224.109375 526.011719 C 225.46875 533.863281 226.835938 541.710938 228.261719 549.867188 C 220.101562 555.503906 211.84375 553.484375 207.722656 544.648438 C 204.484375 537.714844 204.25 530.53125 207.585938 523.546875 Z M 207.578125 523.542969 " fill-opacity="1" fill-rule="nonzero"/></g></g></g><g clip-path="url(#9999a6f4a7)"><g clip-path="url(#4437083944)"><g clip-path="url(#cf5fdf4c24)"><path fill="#ffffff" d="M 295.269531 510.644531 C 289.546875 512.367188 283.859375 514.21875 278.1875 516.09375 C 276.609375 516.613281 275.105469 517.355469 273.460938 518.042969 C 273.035156 516.835938 272.71875 516.070312 272.496094 515.273438 C 270.796875 509.226562 269.191406 503.144531 267.394531 497.121094 C 266.550781 494.304688 265.332031 493.902344 262.539062 494.703125 C 260.097656 495.402344 259.222656 497.125 258.847656 499.417969 C 258.003906 504.582031 256.320312 509.402344 252.507812 513.203125 C 251.78125 513.925781 250.8125 514.410156 249.234375 515.492188 C 249.101562 512.863281 248.953125 511.074219 248.929688 509.28125 C 248.898438 506.996094 249.054688 504.714844 248.964844 502.4375 C 248.878906 500.257812 247.933594 498.449219 245.625 498.027344 C 242.527344 497.457031 239.78125 498.175781 237.515625 501.117188 C 238.875 501.695312 239.972656 502.160156 241.207031 502.691406 C 241.207031 503.390625 241.269531 504.09375 241.199219 504.785156 C 240.894531 507.625 240.386719 510.449219 240.253906 513.296875 C 239.996094 518.933594 242.617188 521.195312 248.183594 520.257812 C 253.09375 519.4375 256.753906 516.542969 259.867188 512.847656 C 260.664062 511.898438 261.421875 510.90625 262.484375 509.570312 C 263.074219 511.984375 263.589844 513.902344 263.988281 515.832031 C 264.414062 517.90625 264.726562 519.996094 265.085938 522.058594 C 261.972656 524.117188 259.054688 525.90625 256.289062 527.902344 C 252.105469 530.925781 248.136719 534.21875 245.429688 538.71875 C 242.238281 544.023438 243.75 547.453125 249.6875 548.777344 C 257.925781 550.617188 271.035156 546.671875 273.332031 533.710938 C 273.730469 531.464844 273.925781 529.1875 274.1875 526.921875 C 274.3125 525.820312 274.371094 524.710938 274.46875 523.605469 C 275.960938 522.9375 277.246094 522.316406 278.566406 521.785156 C 283.742188 519.726562 288.941406 517.726562 294.105469 515.640625 C 296.175781 514.804688 298.464844 514.140625 299.398438 510.621094 C 297.65625 510.613281 296.367188 510.316406 295.269531 510.644531 Z M 262.503906 541.078125 C 260.664062 544.203125 258.257812 545 254.90625 543.894531 C 252.699219 543.160156 252.199219 542.179688 253.011719 540.054688 C 253.210938 539.535156 253.496094 539.019531 253.828125 538.566406 C 256.726562 534.648438 260.378906 531.636719 265.304688 528.988281 C 265.324219 533.746094 264.542969 537.589844 262.5 541.082031 Z M 262.503906 541.078125 " fill-opacity="1" fill-rule="nonzero"/></g></g></g><g clip-path="url(#3ffc9bb9b6)"><g clip-path="url(#730005793a)"><g clip-path="url(#4197b70773)"><path fill="#ffffff" d="M 282.398438 590.527344 C 272.199219 585.929688 269.144531 586.003906 265.886719 591 C 269.730469 593.753906 273.59375 596.535156 277.4375 599.289062 C 276.351562 601.917969 275.183594 603.953125 274.679688 606.132812 C 273.855469 609.710938 273.152344 613.378906 272.988281 617.042969 C 272.835938 620.339844 274.589844 621.28125 277.730469 620.328125 C 279.738281 619.71875 280.628906 618.375 281.195312 616.40625 C 282.113281 613.179688 283.359375 610.046875 284.660156 606.296875 C 287.894531 609.394531 290.503906 611.976562 293.203125 614.449219 C 295.367188 616.4375 297.476562 616.628906 299.335938 615.167969 C 301.378906 613.566406 300.113281 611.84375 299.472656 610.15625 C 297.402344 604.71875 294.09375 600.140625 289.277344 596.070312 C 292.042969 590.664062 294.066406 585.304688 298.074219 581.0625 C 298.882812 580.207031 299.632812 579.269531 298.082031 577.980469 C 289.875 578.222656 286.839844 585.433594 282.390625 590.519531 Z M 282.398438 590.527344 " fill-opacity="1" fill-rule="nonzero"/></g></g></g></svg>